{"glyphs":{"0":{"ha":988,"x_min":164,"x_max":1121,"o":"m 454 343 l 458 347 l 458 340 q 466 297 458 319 q 487 258 474 275 q 518 228 500 240 q 556 217 536 217 l 643 217 q 679 227 657 217 q 724 253 701 238 q 768 290 747 269 q 800 331 789 310 q 814 358 813 350 l 819 372 q 824 392 822 385 q 825 424 825 399 q 822 458 825 442 q 808 489 818 475 q 781 511 799 503 q 738 519 764 519 l 631 519 q 589 509 611 519 q 545 482 567 499 q 506 444 524 465 q 476 403 488 424 l 476 404 q 466 376 471 389 q 460 356 461 364 l 454 343 m 1114 394 q 1063 258 1104 328 q 959 131 1021 188 q 819 37 897 74 q 658 0 742 0 l 525 0 q 381 13 447 0 q 266 56 314 25 q 191 140 218 88 q 164 271 164 192 q 165 305 164 288 q 169 342 167 322 q 220 478 179 408 q 321 606 261 549 q 453 699 381 663 q 600 736 526 736 l 775 736 q 915 722 851 736 q 1025 674 979 707 q 1096 591 1071 642 q 1121 469 1121 540 q 1119 432 1121 450 q 1114 394 1117 414 "},"1":{"ha":447,"x_min":142,"x_max":692,"o":"m 429 0 l 142 0 l 326 519 l 229 519 l 229 542 q 249 574 231 547 q 294 632 268 600 q 347 694 319 664 q 394 736 375 724 l 692 736 l 429 0 "},"2":{"ha":910,"x_min":89,"x_max":1113,"o":"m 431 239 l 429 236 q 442 251 436 244 q 453 257 447 257 l 719 257 q 810 278 761 257 q 908 330 860 299 q 997 399 956 361 q 1064 471 1039 438 q 1113 617 1113 539 q 1088 701 1113 667 q 1013 736 1064 736 l 413 736 q 370 693 393 717 q 322 642 347 669 q 274 583 297 614 q 229 518 250 551 l 788 518 q 783 504 786 507 l 769 486 q 768 488 769 486 q 764 488 767 489 l 765 488 q 753 481 758 482 q 735 472 746 478 q 725 467 725 467 l 472 467 q 387 445 435 467 q 292 392 339 424 q 206 323 246 360 q 143 256 165 286 q 103 178 117 218 q 89 104 89 139 q 112 30 89 60 q 183 0 135 0 l 799 0 q 849 58 821 22 q 903 128 878 94 q 945 188 928 163 q 963 215 963 214 l 415 215 l 431 239 "},"3":{"ha":924,"x_min":35,"x_max":1072,"o":"m 681 246 q 682 249 683 249 l 681 246 m 643 218 l 676 239 q 678 243 678 240 l 681 250 q 681 251 681 250 q 682 253 682 251 l 290 253 l 542 469 l 763 469 q 767 480 763 469 q 775 500 772 490 l 775 503 l 776 501 q 771 512 774 506 q 768 518 768 518 l 233 518 q 309 633 269 578 q 396 736 349 688 l 917 736 q 985 714 956 736 q 1034 659 1015 692 q 1063 590 1053 626 q 1072 524 1072 553 l 1072 521 q 1065 471 1072 496 q 1044 423 1057 446 q 1014 381 1031 400 q 979 350 997 363 q 994 327 986 340 q 1003 290 1001 314 q 995 242 1003 268 q 981 199 988 217 l 981 200 l 975 183 q 932 100 953 135 q 878 43 911 65 q 794 10 846 21 q 660 0 743 0 l 35 0 l 71 54 q 133 140 103 99 q 200 218 163 181 l 643 218 "},"4":{"ha":900,"x_min":135,"x_max":1154,"o":"m 882 0 l 1154 736 l 857 736 l 756 467 l 510 467 l 610 736 l 315 736 l 135 250 l 628 250 l 704 328 l 585 0 l 882 0 "},"5":{"ha":903,"x_min":44,"x_max":1165,"o":"m 661 215 q 678 249 678 236 l 678 257 l 411 257 q 344 275 379 257 q 281 322 310 293 q 233 387 251 351 q 214 458 214 422 l 214 482 l 214 479 q 215 483 214 482 q 215 486 215 485 l 310 736 l 1165 736 q 976 518 1083 617 l 524 518 l 511 483 l 511 479 q 512 484 511 481 q 514 486 513 488 l 519 481 q 528 472 524 478 q 532 467 532 467 l 786 467 q 858 444 825 467 q 916 389 892 422 q 954 317 940 356 q 968 246 968 278 l 968 240 q 951 161 968 203 q 904 83 933 119 q 837 24 875 47 q 758 0 799 0 l 44 0 q 78 51 53 15 q 133 123 104 86 q 185 188 161 160 q 215 215 210 215 l 661 215 "},"6":{"ha":874,"x_min":183,"x_max":1139,"o":"m 663 249 l 664 249 l 663 249 m 663 253 q 640 267 658 261 l 515 267 q 542 232 529 246 q 574 218 556 218 l 639 218 l 663 253 m 963 269 q 910 172 943 221 q 836 85 878 124 q 745 24 794 47 q 643 0 696 0 q 475 15 557 0 q 328 69 393 31 q 223 173 263 107 q 183 339 183 239 l 183 342 q 213 478 183 408 q 293 606 243 549 q 410 700 343 664 q 550 736 476 736 l 1139 736 q 1040 616 1088 669 q 942 519 993 563 l 590 519 q 551 506 569 519 q 517 474 532 493 l 846 474 q 944 424 917 458 q 971 336 971 390 q 969 306 971 321 q 964 272 967 290 l 963 269 "},"7":{"ha":843,"x_min":63,"x_max":1132,"o":"m 63 0 l 569 519 l 236 519 l 236 542 q 257 574 238 547 q 303 632 276 600 q 359 694 331 664 q 407 736 388 724 l 1132 736 l 388 0 l 63 0 "},"8":{"ha":964,"x_min":96,"x_max":1114,"o":"m 722 246 q 724 249 725 249 l 722 246 m 683 218 q 697 226 683 218 q 717 239 710 233 q 719 243 719 242 l 722 250 q 726 256 724 253 q 731 267 728 260 l 460 267 l 449 239 q 447 228 449 229 q 451 221 450 224 q 451 218 451 218 l 683 218 m 499 367 l 626 476 l 808 476 q 810 485 808 476 q 815 500 813 493 l 815 504 q 810 513 813 508 q 804 518 807 517 l 576 518 q 563 514 574 518 q 547 501 551 510 l 547 503 l 499 367 m 219 428 q 227 491 219 460 q 246 544 235 522 l 254 564 q 281 624 264 593 q 332 679 299 654 q 420 720 365 704 q 561 736 475 736 l 958 736 q 1026 716 997 736 q 1075 665 1056 696 q 1104 600 1094 635 q 1114 535 1114 565 l 1114 517 q 1100 457 1114 486 l 1100 458 q 1066 396 1088 425 q 1019 350 1044 367 q 1035 326 1028 339 q 1044 290 1043 313 l 1044 286 q 1038 248 1044 268 q 1025 210 1032 228 l 1025 211 l 1015 183 q 974 100 994 135 q 920 43 953 65 q 836 10 888 21 q 701 0 785 0 l 303 0 q 202 6 242 0 q 139 24 163 11 q 106 55 115 36 q 96 100 96 74 q 117 199 96 140 l 124 218 q 142 261 131 236 q 168 304 154 286 q 203 338 186 325 q 235 360 219 351 q 219 428 219 386 "},"9":{"ha":874,"x_min":31,"x_max":986,"o":"m 507 483 q 513 475 508 479 q 528 469 517 471 l 651 469 q 624 503 638 489 q 594 518 611 518 l 528 518 l 508 485 l 508 481 l 507 483 m 208 467 q 259 563 226 515 q 334 650 292 611 q 426 713 376 689 q 528 736 475 736 l 538 736 q 764 720 676 736 q 901 665 851 704 q 968 561 950 626 q 986 397 986 496 l 986 393 q 956 257 986 326 q 874 130 925 188 q 758 36 824 72 q 621 0 692 0 l 31 0 q 129 120 82 67 q 228 217 176 174 l 581 217 q 618 229 600 217 q 653 263 636 242 l 324 263 q 226 312 253 278 q 199 400 199 346 q 207 464 199 431 l 208 467 "}," ":{"ha":388,"x_min":0,"x_max":0,"o":""},"!":{"ha":344,"x_min":100,"x_max":588,"o":"m 263 225 q 322 199 301 222 q 343 143 343 176 q 326 85 343 117 q 278 31 310 53 q 235 8 258 17 q 189 0 213 0 q 123 23 146 0 q 100 82 100 46 q 106 121 100 110 q 164 193 124 164 q 249 225 204 222 l 121 225 l 303 736 l 588 736 l 407 225 l 263 225 "},"\"":{"ha":438,"x_min":265,"x_max":669,"o":"m 269 599 q 267 581 267 592 q 267 557 267 571 q 276 499 265 526 q 319 472 288 472 l 329 472 q 353 481 338 472 q 386 503 368 489 q 421 533 404 517 q 449 565 438 549 l 449 557 q 458 499 447 526 q 501 472 469 472 l 513 472 q 542 485 522 472 q 583 515 563 497 q 622 554 604 533 q 647 592 640 575 l 661 633 q 668 669 668 643 q 649 719 669 700 q 593 738 629 738 q 535 721 563 738 q 488 678 507 704 q 411 738 479 738 q 338 711 372 738 q 288 649 303 685 l 269 599 "},"#":{"ha":1029,"x_min":57,"x_max":1268,"o":"m 199 0 l 497 0 l 547 135 l 608 135 l 560 0 l 858 0 l 908 135 l 943 135 l 1178 351 l 989 351 l 999 381 l 1033 381 l 1268 597 l 1079 597 l 1132 736 l 833 736 l 779 597 l 719 597 l 771 736 l 472 736 l 418 597 l 382 597 l 149 381 l 339 381 l 328 351 l 292 351 l 57 135 l 249 135 l 199 0 m 639 381 l 699 381 l 688 351 l 628 351 l 639 381 "},"$":{"ha":911,"x_min":54,"x_max":1175,"o":"m 300 -189 l 510 -189 l 578 0 l 768 0 q 846 24 808 0 q 913 85 883 49 q 959 164 942 121 q 976 244 976 207 l 976 253 q 966 326 976 286 q 934 401 956 367 q 878 458 913 435 q 796 481 843 481 l 754 481 l 769 528 l 986 528 q 1087 633 1039 578 q 1175 750 1135 688 l 851 750 l 918 936 l 708 936 l 640 750 l 454 750 q 372 723 413 750 q 298 656 331 696 q 244 572 265 617 q 224 493 224 528 l 224 415 q 227 359 224 386 q 242 311 231 332 q 274 278 253 290 q 332 267 296 267 l 465 267 l 447 219 l 225 219 q 209 206 222 219 q 179 172 196 193 q 142 126 163 151 q 105 76 122 100 q 74 31 88 51 q 54 0 60 11 l 368 0 l 300 -189 m 529 490 l 524 496 q 522 494 522 497 q 521 489 521 490 l 521 496 q 526 515 521 503 q 538 528 531 528 l 560 528 l 542 481 l 540 481 q 536 484 540 481 q 529 490 532 488 m 686 253 l 686 238 q 681 219 686 219 l 658 219 l 675 267 l 688 267 q 686 261 686 267 l 686 253 "},"%":{"ha":1083,"x_min":90,"x_max":1296,"o":"m 836 186 l 836 185 q 844 162 836 174 q 861 150 851 150 l 897 150 q 921 163 904 150 q 947 193 938 176 l 950 196 q 951 199 950 197 l 951 197 l 956 208 q 954 221 954 207 q 950 238 954 231 q 933 244 946 244 l 893 244 q 867 232 881 244 q 843 204 853 219 l 844 208 l 836 186 m 429 535 l 429 533 q 437 510 429 522 q 454 499 444 499 l 489 499 q 513 510 497 499 q 539 538 529 522 q 542 542 540 540 q 544 546 543 543 q 546 550 544 549 l 544 549 l 549 557 l 549 569 q 544 586 549 579 q 525 593 539 593 l 485 593 q 459 580 474 593 q 436 551 444 567 l 438 556 l 429 535 m 739 551 q 738 539 739 542 l 738 543 q 736 538 736 542 l 729 519 q 728 518 729 518 l 728 517 l 999 736 l 1296 736 l 864 386 q 876 388 867 388 l 965 388 q 1098 355 1046 388 q 1150 244 1150 322 q 1146 204 1150 222 q 1144 197 1146 197 l 1144 194 l 1136 171 q 1102 108 1125 139 q 1049 53 1079 78 q 981 15 1018 29 q 906 0 944 0 l 839 0 q 763 7 797 0 q 702 31 728 14 q 662 75 676 47 q 647 146 647 103 q 648 165 647 157 q 650 182 649 172 q 654 199 651 190 q 660 217 657 208 q 661 220 660 219 q 663 224 663 221 l 385 0 l 90 0 l 522 350 q 510 349 518 349 l 499 349 l 432 349 q 356 356 390 349 q 295 379 321 363 q 255 424 269 396 q 240 494 240 451 q 241 513 240 504 q 243 529 242 521 q 247 547 244 539 q 253 565 250 556 q 287 628 264 597 q 340 683 310 658 q 403 722 369 707 q 471 736 438 736 l 560 736 q 692 703 640 736 q 743 594 743 671 q 739 551 743 572 "},"&":{"ha":1100,"x_min":96,"x_max":1296,"o":"m 1061 258 l 1296 476 l 629 476 l 501 367 l 550 503 l 550 501 q 565 514 554 510 q 579 518 576 518 l 914 518 q 1003 615 958 561 q 1092 736 1047 669 l 564 736 q 422 720 478 736 q 333 679 367 704 q 283 624 300 654 q 256 564 265 593 l 247 544 q 228 491 236 522 q 221 428 221 460 q 235 360 221 386 q 203 338 219 351 q 169 304 186 325 q 142 261 154 286 q 124 218 131 236 l 117 199 q 101 145 107 169 q 96 100 96 121 q 106 55 96 74 q 140 24 115 36 q 204 6 164 11 q 306 0 244 0 l 686 0 q 821 10 769 0 q 906 42 872 19 q 960 98 939 64 q 1001 181 981 132 l 1008 206 l 1008 204 q 1019 229 1014 215 q 1026 258 1024 243 l 1061 258 m 668 218 l 454 218 q 453 222 454 218 q 450 229 453 225 l 463 267 l 715 267 q 710 256 713 260 q 707 250 708 253 l 704 243 q 701 239 704 242 q 681 226 694 233 q 668 218 668 218 m 708 249 q 707 246 710 249 l 708 249 "},"'":{"ha":236,"x_min":246,"x_max":449,"o":"m 249 597 q 247 581 249 592 q 247 556 246 571 q 256 498 246 525 q 294 471 265 471 l 303 471 q 331 483 313 471 q 368 514 349 496 q 404 553 388 532 q 428 590 421 574 l 442 632 q 446 648 444 639 q 447 668 447 657 q 430 717 449 699 q 379 736 411 736 q 310 710 343 736 q 267 647 278 683 l 249 597 "},"(":{"ha":563,"x_min":169,"x_max":822,"o":"m 169 293 q 185 390 169 338 q 228 496 201 443 q 293 598 256 549 q 374 685 331 647 q 465 745 418 722 q 561 768 513 768 l 822 768 q 725 647 772 701 q 629 550 678 592 l 599 550 q 563 535 581 550 q 528 499 544 521 q 499 452 511 476 q 479 407 486 428 l 468 375 q 455 338 461 357 q 449 313 449 318 l 449 311 q 458 277 449 294 q 482 242 468 260 q 513 209 496 225 q 543 179 529 193 q 566 158 557 168 q 582 140 575 147 l 582 124 q 565 58 582 100 q 528 -24 547 17 l 514 -51 q 456 -39 490 -47 q 382 -15 421 -31 q 306 26 343 1 q 238 86 268 50 q 188 172 207 122 q 169 289 169 222 l 169 293 "},")":{"ha":561,"x_min":24,"x_max":675,"o":"m 675 425 q 659 328 675 381 q 616 224 643 276 q 551 122 589 171 q 470 35 514 72 q 378 -26 426 -3 q 283 -49 331 -49 l 24 -49 q 119 72 72 18 q 214 169 165 126 l 244 169 q 280 184 261 169 q 315 221 299 199 q 344 267 331 243 q 364 313 357 292 l 372 335 q 385 377 379 356 q 394 408 392 399 q 381 453 394 429 q 347 500 367 478 q 303 541 326 522 q 261 571 281 560 l 261 590 q 267 624 261 603 q 284 672 274 646 q 307 724 294 697 q 332 771 319 750 q 390 758 356 767 q 462 734 424 750 q 538 694 500 718 q 607 633 576 669 q 656 547 638 597 q 675 431 675 497 l 675 425 "},"*":{"ha":328,"x_min":268,"x_max":575,"o":"m 397 546 l 544 633 l 521 667 l 575 676 l 575 813 l 533 794 l 554 831 l 404 831 l 392 790 l 364 814 l 272 683 l 311 674 l 268 646 l 353 547 l 390 592 l 397 546 "},"+":{"ha":631,"x_min":100,"x_max":818,"o":"m 269 125 l 486 125 l 532 249 l 590 249 l 818 458 l 611 458 l 661 590 l 443 590 l 393 458 l 329 458 l 100 249 l 315 249 l 269 125 "},",":{"ha":274,"x_min":58,"x_max":299,"o":"m 60 58 q 58 35 58 54 l 58 17 q 60 -19 58 -1 q 69 -53 63 -37 q 86 -78 75 -68 q 117 -87 97 -87 l 128 -87 q 163 -74 140 -87 q 207 -40 185 -60 q 248 3 229 -19 q 274 46 267 26 l 290 97 q 299 133 299 122 q 277 187 299 165 q 215 208 256 208 q 133 179 171 208 q 78 110 94 150 l 60 58 "},"-":{"ha":492,"x_min":122,"x_max":701,"o":"m 476 286 l 122 286 l 347 474 l 701 474 l 476 286 "},".":{"ha":271,"x_min":71,"x_max":294,"o":"m 71 71 q 78 106 71 94 q 132 169 94 143 q 213 196 169 196 q 274 176 253 196 q 294 125 294 157 q 278 74 294 101 q 235 26 263 46 q 153 0 199 0 q 92 19 113 0 q 71 71 71 39 "},"/":{"ha":908,"x_min":6,"x_max":1201,"o":"m 350 0 l 1201 736 l 856 736 l 6 0 l 350 0 "},":":{"ha":288,"x_min":76,"x_max":431,"o":"m 76 81 q 82 119 76 108 q 140 192 100 163 q 226 221 181 221 q 291 199 268 221 q 314 140 314 176 q 297 83 314 114 q 250 29 281 51 q 163 0 210 0 q 99 22 121 0 q 76 81 76 44 m 193 418 q 199 456 193 446 q 257 528 217 499 q 343 558 297 558 q 408 536 385 558 q 431 478 431 514 q 414 420 431 451 q 367 367 397 389 q 279 338 326 338 q 215 360 238 338 q 193 418 193 382 "},";":{"ha":289,"x_min":60,"x_max":432,"o":"m 63 63 q 60 50 60 54 l 60 38 l 60 18 q 63 -22 60 -1 q 72 -58 65 -42 q 91 -84 79 -74 q 122 -94 103 -94 l 133 -94 q 170 -79 147 -94 q 217 -42 193 -64 q 261 4 242 -21 q 288 50 281 29 l 306 104 q 314 143 314 129 q 291 201 314 178 q 226 224 268 224 q 140 193 181 224 q 82 118 99 163 l 63 63 m 194 422 q 217 363 194 386 q 281 340 239 340 q 349 358 317 340 q 403 403 382 375 l 401 403 q 425 445 418 422 q 432 483 432 468 q 410 542 432 519 q 344 564 388 564 q 258 534 299 564 q 200 461 218 504 q 195 444 196 454 q 194 422 194 433 "},"<":{"ha":624,"x_min":161,"x_max":908,"o":"m 313 0 l 161 375 l 571 736 l 908 736 l 489 364 l 635 0 l 313 0 "},"=":{"ha":594,"x_min":57,"x_max":831,"o":"m 600 367 l 146 367 l 376 576 l 831 576 l 600 367 m 511 129 l 57 129 l 288 339 l 740 339 l 511 129 "},">":{"ha":624,"x_min":6,"x_max":757,"o":"m 343 0 l 757 364 l 606 736 l 282 736 l 429 375 l 6 0 l 343 0 "},"?":{"ha":899,"x_min":131,"x_max":1100,"o":"m 314 224 q 367 195 349 217 q 386 143 386 174 q 368 85 386 117 q 318 31 350 53 q 272 8 297 17 q 224 0 247 0 q 155 23 179 0 q 131 82 131 46 q 138 121 131 107 q 192 188 154 160 q 272 224 229 217 l 181 224 q 249 302 206 260 q 343 381 293 344 q 442 442 393 418 q 529 467 492 467 l 714 467 q 724 472 714 467 q 742 481 735 478 q 754 488 747 482 l 753 488 q 757 488 756 489 q 758 486 758 486 l 774 504 q 774 508 774 504 q 776 518 775 511 l 219 518 q 264 583 240 551 q 313 642 288 614 q 360 693 338 669 q 403 736 383 717 l 1000 736 q 1077 701 1054 736 q 1100 615 1100 665 q 1088 540 1100 578 q 1053 471 1076 503 q 986 399 1028 438 q 897 330 944 361 q 799 278 849 299 q 708 257 750 257 l 511 257 q 467 250 483 257 q 446 236 451 243 l 446 224 l 314 224 "},"@":{"ha":1029,"x_min":171,"x_max":1171,"o":"m 507 368 l 507 353 q 530 265 507 301 q 619 222 553 229 l 849 222 q 953 229 906 222 q 1039 254 1001 236 q 1105 303 1076 272 q 1151 381 1133 333 q 1171 496 1171 446 l 1171 500 q 1138 636 1171 586 q 1058 713 1106 686 q 958 749 1011 739 q 861 764 904 758 q 839 766 850 765 q 818 769 828 767 l 572 769 q 458 738 515 769 q 350 657 400 707 q 260 545 300 607 q 197 422 219 483 q 171 292 171 356 l 171 289 q 210 127 171 190 q 305 27 250 64 q 417 -26 360 -10 q 510 -49 474 -43 l 644 -49 q 658 -8 651 -31 q 671 26 665 14 q 685 64 679 49 q 694 92 690 79 q 700 115 699 104 q 701 140 701 126 l 674 140 q 629 142 656 140 q 588 149 603 144 q 554 179 576 157 q 522 209 539 193 q 491 242 506 225 q 467 277 476 260 q 458 311 458 294 l 458 313 q 462 326 458 314 q 471 353 465 338 q 480 378 475 364 q 489 408 485 393 l 489 407 q 509 452 496 428 q 539 499 522 476 q 574 535 556 521 q 611 550 593 550 l 779 550 q 854 518 828 542 q 881 460 881 494 q 872 422 881 436 q 847 397 865 403 q 804 389 829 390 q 808 421 808 406 q 782 494 808 464 q 706 524 756 524 q 647 512 678 524 q 589 481 617 500 q 540 439 561 463 q 510 390 518 415 q 507 368 507 382 m 651 369 q 672 388 658 386 l 672 379 l 674 382 q 651 367 669 367 l 647 363 l 651 369 "},"A":{"ha":1035,"x_min":35,"x_max":1040,"o":"m 511 215 l 728 215 l 692 454 l 511 215 m 1040 0 l 761 0 l 739 117 q 710 81 726 100 q 678 44 694 61 q 649 15 663 28 q 629 0 636 3 l 35 0 l 528 650 l 526 647 q 544 670 531 656 q 575 699 558 685 q 608 725 592 714 q 636 736 625 736 l 860 736 q 894 720 879 736 q 919 682 908 704 q 936 635 929 660 q 947 593 943 611 l 1040 0 "},"B":{"ha":949,"x_min":43,"x_max":1097,"o":"m 713 264 q 713 265 713 264 q 714 267 714 265 l 442 267 l 422 218 l 667 218 q 680 226 667 218 q 700 239 693 233 l 710 257 l 713 264 m 532 518 l 489 403 l 567 469 l 788 469 q 792 480 788 469 q 799 500 796 490 l 799 503 l 800 501 q 795 512 797 506 q 793 518 793 518 l 532 518 m 315 736 l 942 736 q 1018 718 988 736 q 1066 671 1049 700 q 1090 603 1083 642 q 1097 524 1097 565 l 1097 521 q 1088 472 1097 496 q 1063 425 1078 447 q 1031 385 1049 403 q 997 356 1014 368 q 1017 322 1008 340 q 1026 279 1025 303 q 1019 237 1026 257 q 1006 199 1013 217 l 1006 200 l 1000 183 q 953 100 978 135 q 894 43 929 65 q 810 10 860 21 q 685 0 760 0 l 43 0 l 315 736 "},"C":{"ha":867,"x_min":183,"x_max":1139,"o":"m 183 342 q 213 478 183 408 q 293 606 243 549 q 410 700 343 664 q 550 736 476 736 l 1139 736 q 1040 616 1088 669 q 942 519 993 563 l 590 519 q 559 509 575 519 q 527 482 543 499 q 499 445 511 465 q 479 404 486 425 l 479 406 q 472 378 475 390 q 469 357 469 367 q 481 310 469 335 q 510 265 492 286 q 549 231 528 244 q 590 217 571 217 l 946 217 q 860 101 907 158 q 756 0 814 44 l 643 0 q 475 15 557 0 q 328 69 393 31 q 223 173 263 107 q 183 339 183 239 l 183 342 "},"D":{"ha":906,"x_min":43,"x_max":1082,"o":"m 996 325 q 1061 446 1040 383 q 1082 563 1082 508 q 1041 688 1082 639 q 910 736 1000 736 l 315 736 l 43 0 l 404 0 q 597 18 511 0 q 752 75 682 36 q 882 176 822 114 q 997 326 942 239 l 996 325 m 739 519 q 758 510 753 519 q 764 486 764 500 q 759 463 764 476 q 749 436 754 450 l 740 417 q 728 394 733 400 q 718 381 724 388 q 713 373 715 378 q 707 365 710 368 q 655 311 689 338 q 581 264 621 285 q 501 230 542 243 q 431 217 461 217 l 424 217 l 536 519 l 739 519 "},"E":{"ha":863,"x_min":43,"x_max":1124,"o":"m 315 736 l 1124 736 q 1085 678 1113 714 q 1028 606 1058 642 q 971 545 999 571 q 931 519 943 519 l 532 519 l 490 404 l 561 474 l 929 474 l 696 257 l 435 257 l 419 217 l 936 217 q 926 197 933 211 q 909 169 918 183 q 892 142 900 154 q 883 128 885 129 l 885 131 q 849 92 872 114 q 803 49 826 69 q 763 14 781 28 q 743 0 744 0 l 43 0 l 315 736 "},"F":{"ha":858,"x_min":43,"x_max":1124,"o":"m 315 736 l 1124 736 q 1085 678 1113 714 q 1028 606 1058 642 q 971 545 999 571 q 931 519 943 519 l 532 519 l 490 404 l 561 474 l 929 474 l 696 257 l 435 257 l 340 0 l 43 0 l 315 736 "},"G":{"ha":879,"x_min":183,"x_max":1139,"o":"m 1036 474 l 682 474 q 635 428 661 457 q 587 369 610 399 q 547 315 564 339 q 529 286 531 292 l 529 263 l 671 263 l 654 217 l 590 217 q 548 231 569 217 q 509 265 526 244 q 481 310 492 286 q 469 357 469 335 q 472 378 469 367 q 479 406 475 390 l 479 404 q 497 445 486 425 q 523 482 508 465 q 555 509 538 499 q 590 519 572 519 l 942 519 q 1040 616 993 563 q 1139 736 1088 669 l 550 736 q 410 699 476 736 q 293 605 343 663 q 213 476 243 547 q 183 339 183 406 q 223 173 183 239 q 328 69 263 107 q 475 15 393 31 q 643 0 557 0 l 854 0 l 1036 474 "},"H":{"ha":903,"x_min":43,"x_max":1158,"o":"m 43 0 l 317 736 l 615 736 l 485 388 l 564 467 l 761 467 l 863 736 l 1158 736 l 885 0 l 589 0 l 682 250 l 435 250 l 342 0 l 43 0 "},"I":{"ha":851,"x_min":44,"x_max":1117,"o":"m 44 0 l 44 22 q 65 54 46 28 q 112 113 85 81 q 167 174 139 144 q 215 217 196 204 l 368 217 l 481 519 l 238 519 l 238 542 q 258 574 239 547 q 305 632 278 600 q 360 694 332 664 q 408 736 389 724 l 1117 736 q 1078 678 1106 714 q 1022 606 1051 642 q 964 545 992 571 q 924 519 936 519 l 779 519 l 668 217 l 924 217 q 886 159 913 196 q 830 87 860 122 q 772 26 800 51 q 732 0 744 0 l 44 0 "},"J":{"ha":792,"x_min":29,"x_max":1046,"o":"m 29 0 q 104 117 65 63 q 190 217 143 171 l 468 217 q 511 229 490 217 q 549 259 532 242 q 581 297 567 276 q 603 335 594 318 l 601 332 l 751 736 l 1046 736 l 907 361 q 844 206 875 274 q 769 93 813 139 q 664 24 725 47 q 513 0 603 0 l 29 0 "},"K":{"ha":964,"x_min":43,"x_max":1261,"o":"m 43 0 l 317 736 l 617 736 l 511 456 l 908 736 l 1261 736 l 765 364 l 1035 0 l 697 0 l 451 292 l 343 0 l 43 0 "},"L":{"ha":765,"x_min":43,"x_max":808,"o":"m 43 0 l 656 0 q 706 54 678 18 q 756 126 733 90 q 794 190 779 163 q 804 217 808 217 l 414 217 l 604 736 l 311 736 l 43 0 "},"M":{"ha":1154,"x_min":43,"x_max":1411,"o":"m 1136 0 l 836 0 l 956 326 l 651 0 l 532 0 l 469 335 l 344 0 l 43 0 l 318 736 l 675 736 l 739 408 l 1049 736 l 1411 736 l 1136 0 "},"N":{"ha":903,"x_min":43,"x_max":1158,"o":"m 43 0 l 317 736 l 671 736 l 736 399 l 863 736 l 1158 736 l 885 0 l 531 0 l 467 336 l 342 0 l 43 0 "},"O":{"ha":988,"x_min":164,"x_max":1122,"o":"m 454 343 l 458 347 l 458 340 q 466 297 458 319 q 487 258 474 275 q 518 228 500 240 q 556 217 536 217 l 643 217 q 678 227 656 217 q 724 254 700 238 q 768 291 747 271 q 800 331 789 311 q 814 358 811 347 l 819 372 q 822 385 821 379 q 824 399 822 392 q 825 410 825 403 l 825 424 q 822 458 825 442 q 808 489 818 475 q 781 511 799 503 q 738 519 764 519 l 631 519 q 589 509 611 519 q 545 482 567 499 q 506 444 524 465 q 476 403 488 424 l 476 404 q 466 376 471 389 q 460 356 461 364 l 454 343 m 1115 394 q 1060 242 1103 314 q 956 117 1018 171 q 817 31 894 63 q 658 0 740 0 l 525 0 q 381 13 447 0 q 266 56 314 25 q 191 140 218 88 q 164 271 164 192 q 165 305 164 288 q 169 342 167 322 q 221 490 181 418 q 321 616 261 561 q 453 703 381 671 q 600 736 525 736 l 775 736 q 1034 677 946 736 q 1122 481 1122 618 q 1120 439 1122 461 q 1115 393 1118 417 l 1115 394 "},"P":{"ha":929,"x_min":43,"x_max":1097,"o":"m 532 518 l 489 403 l 567 469 l 788 469 q 792 480 788 469 q 799 500 796 490 l 799 503 l 800 501 q 795 512 797 506 q 793 518 793 518 l 532 518 m 43 0 l 315 736 l 942 736 q 1018 714 988 736 q 1066 659 1049 692 q 1090 590 1083 626 q 1097 524 1097 553 q 1069 414 1097 464 q 996 328 1040 364 q 899 273 951 293 q 797 253 846 253 l 435 253 l 342 0 l 43 0 "},"Q":{"ha":978,"x_min":165,"x_max":1115,"o":"m 458 342 q 465 303 458 322 q 482 266 471 283 q 508 236 493 249 q 540 219 524 224 l 469 375 l 792 375 l 807 344 q 814 360 811 349 l 819 374 q 821 385 821 378 q 822 396 821 392 l 822 408 q 818 448 822 428 q 802 484 814 468 q 771 510 790 500 q 722 521 751 521 l 631 521 q 589 510 611 521 q 544 483 567 500 q 504 444 522 465 q 475 403 486 424 l 476 404 q 465 376 469 389 q 458 349 460 363 l 458 342 m 1108 396 q 1047 242 1096 319 q 928 101 999 164 l 1000 -37 l 690 -37 l 667 0 l 560 0 q 409 13 481 0 q 283 57 338 25 q 197 143 229 89 q 165 281 165 197 q 169 343 165 311 q 222 494 181 422 q 322 619 263 565 q 453 706 381 674 q 600 738 526 738 l 775 738 q 914 720 851 738 q 1022 669 976 703 q 1091 584 1067 635 q 1115 467 1115 533 q 1113 432 1115 449 q 1108 396 1111 415 "},"R":{"ha":953,"x_min":43,"x_max":1092,"o":"m 793 515 q 789 521 793 521 l 533 521 l 494 414 l 551 472 l 775 472 q 789 483 785 472 q 793 501 793 493 l 793 515 m 43 0 l 315 736 l 925 736 q 1009 714 976 736 q 1060 659 1042 692 q 1085 588 1078 626 q 1092 515 1092 549 q 1063 403 1092 449 q 987 330 1033 358 q 883 288 940 301 q 772 268 826 274 l 1038 0 l 697 0 l 431 242 l 342 0 l 43 0 "},"S":{"ha":911,"x_min":54,"x_max":1175,"o":"m 686 249 l 686 233 q 681 215 686 215 l 225 215 q 195 188 219 215 q 142 123 171 160 q 88 51 114 86 q 54 0 63 15 l 768 0 q 846 24 808 0 q 913 83 883 47 q 959 161 942 119 q 976 240 976 203 l 976 249 q 966 321 976 282 q 934 393 956 360 q 878 449 913 426 q 796 472 843 472 l 540 472 q 536 475 540 472 q 529 481 532 478 l 524 486 q 522 484 522 488 q 521 479 521 481 l 521 486 q 526 506 521 493 q 538 518 531 518 l 986 518 q 1175 736 1093 617 l 454 736 q 372 710 413 736 q 298 644 331 683 q 245 562 265 606 q 225 483 225 518 q 239 407 225 446 q 278 335 253 368 q 340 282 304 303 q 421 261 376 261 l 688 261 q 686 257 686 261 l 686 249 "},"T":{"ha":844,"x_min":235,"x_max":1107,"o":"m 286 0 l 476 519 l 235 519 l 235 542 q 256 574 236 547 q 301 632 275 600 q 356 694 328 664 q 404 736 385 724 l 1107 736 q 1069 678 1096 714 q 1013 606 1043 642 q 956 545 983 571 q 917 519 929 519 l 774 519 l 582 0 l 286 0 "},"U":{"ha":938,"x_min":158,"x_max":1193,"o":"m 204 429 q 198 404 201 417 q 192 381 194 392 q 176 326 182 351 q 165 281 169 301 q 160 245 163 261 q 158 213 158 229 q 175 114 158 154 q 231 49 192 74 q 338 12 271 24 q 503 0 404 0 l 658 0 q 803 25 743 0 q 910 99 864 50 q 992 220 956 149 q 1063 385 1028 292 l 1193 736 l 897 736 l 749 332 l 750 335 q 727 297 742 318 q 693 259 713 276 q 649 229 674 242 q 596 217 625 217 l 531 217 q 485 238 503 217 q 468 294 468 258 q 475 332 468 301 q 477 347 475 336 q 492 397 479 357 q 533 515 506 436 q 610 736 560 594 l 315 736 l 204 429 "},"V":{"ha":1015,"x_min":292,"x_max":1294,"o":"m 624 296 l 971 736 l 1294 736 l 797 89 q 777 66 790 81 q 747 37 764 51 q 714 11 731 22 q 683 0 697 0 l 464 0 q 431 14 444 0 q 408 48 418 28 q 391 92 397 68 q 381 135 385 115 l 382 133 q 380 142 381 136 q 378 150 379 147 l 292 736 l 564 736 l 624 296 "},"W":{"ha":1197,"x_min":297,"x_max":1475,"o":"m 1011 457 l 1190 736 l 1475 736 l 1049 92 q 1032 67 1043 83 q 1007 37 1021 51 q 979 11 993 22 q 956 0 965 0 l 797 0 q 758 48 769 0 q 735 201 746 96 q 731 233 732 217 q 728 269 731 250 l 600 90 q 593 81 597 88 q 583 68 589 75 q 549 22 568 44 q 507 0 529 0 l 347 0 q 322 15 332 0 q 307 50 313 29 q 299 95 301 71 q 297 139 297 119 l 297 736 l 558 736 l 558 439 l 756 736 l 992 736 l 1011 457 "},"X":{"ha":910,"x_min":6,"x_max":1201,"o":"m 528 154 l 350 0 l 6 0 l 438 375 l 288 736 l 618 736 l 679 585 l 856 736 l 1201 736 l 772 364 l 921 0 l 593 0 l 528 154 "},"Y":{"ha":897,"x_min":283,"x_max":1186,"o":"m 314 0 l 442 350 l 283 736 l 610 736 l 671 585 l 844 736 l 1186 736 l 733 339 l 608 0 l 314 0 "},"Z":{"ha":851,"x_min":15,"x_max":1133,"o":"m 15 0 l 567 519 l 238 519 l 238 542 q 258 574 239 547 q 305 632 278 600 q 360 694 332 664 q 408 736 389 724 l 1133 736 l 582 217 l 924 217 q 886 159 913 196 q 830 87 860 122 q 772 26 800 51 q 732 0 744 0 l 15 0 "},"[":{"ha":572,"x_min":17,"x_max":854,"o":"m 344 832 l 854 832 q 817 773 843 810 q 761 701 790 736 q 704 640 732 665 q 664 614 676 614 l 558 614 l 389 144 l 611 144 q 601 125 608 139 q 584 96 593 111 q 567 68 575 81 q 558 54 560 56 l 560 57 q 525 17 547 40 q 481 -26 503 -6 q 441 -60 458 -46 q 421 -75 424 -75 l 17 -75 l 344 832 "},"\\":{"ha":881,"x_min":278,"x_max":892,"o":"m 574 0 l 278 736 l 599 736 l 892 0 l 574 0 "},"]":{"ha":572,"x_min":15,"x_max":856,"o":"m 526 -75 l 15 -75 q 53 -16 26 -53 q 109 56 79 21 q 166 117 139 92 q 207 143 193 143 l 311 143 l 482 613 l 261 613 q 272 632 264 618 q 288 661 279 646 q 303 689 296 676 q 313 703 311 701 l 311 700 q 346 740 324 717 q 391 783 368 763 q 431 817 414 803 q 451 832 449 832 l 856 832 l 526 -75 "},"^":{"ha":1035,"x_min":35,"x_max":1040,"o":"m 761 0 l 1040 0 l 947 593 q 936 635 943 611 q 919 682 929 660 q 894 720 908 704 q 860 736 879 736 l 636 736 q 609 726 625 736 q 577 701 593 715 q 547 673 561 688 q 528 650 533 658 l 75 79 q 62 81 69 89 q 44 40 54 72 l 43 39 l 43 36 q 39 19 40 28 q 35 0 38 11 l 356 0 l 692 454 l 761 0 "},"_":{"ha":632,"x_min":7,"x_max":728,"o":"m 499 0 l 7 0 l 236 188 l 728 188 l 499 0 "},"`":{"ha":211,"x_min":231,"x_max":372,"o":"m 360 588 l 360 586 q 347 619 354 604 q 318 633 339 633 q 303 630 313 633 q 279 622 294 626 q 233 565 246 601 q 231 549 231 557 q 235 526 231 532 l 240 501 q 270 467 249 482 q 311 451 292 451 q 335 458 328 451 l 331 457 l 338 461 l 336 458 q 356 476 349 465 q 368 500 363 486 q 372 525 372 513 q 372 537 372 532 q 369 546 371 542 l 369 560 l 360 588 "},"a":{"ha":1035,"x_min":35,"x_max":1040,"o":"m 511 215 l 728 215 l 692 454 l 511 215 m 1040 0 l 761 0 l 739 117 q 710 81 726 100 q 678 44 694 61 q 649 15 663 28 q 629 0 636 3 l 35 0 l 528 650 l 526 647 q 544 670 531 656 q 575 699 558 685 q 608 725 592 714 q 636 736 625 736 l 860 736 q 894 720 879 736 q 919 682 908 704 q 936 635 929 660 q 947 593 943 611 l 1040 0 "},"b":{"ha":949,"x_min":43,"x_max":1097,"o":"m 713 264 q 713 265 713 264 q 714 267 714 265 l 442 267 l 422 218 l 667 218 q 680 226 667 218 q 700 239 693 233 l 710 257 l 713 264 m 532 518 l 489 403 l 567 469 l 788 469 q 792 480 788 469 q 799 500 796 490 l 799 503 l 800 501 q 795 512 797 506 q 793 518 793 518 l 532 518 m 315 736 l 942 736 q 1018 718 988 736 q 1066 671 1049 700 q 1090 603 1083 642 q 1097 524 1097 565 l 1097 521 q 1088 472 1097 496 q 1063 425 1078 447 q 1031 385 1049 403 q 997 356 1014 368 q 1017 322 1008 340 q 1026 279 1025 303 q 1019 237 1026 257 q 1006 199 1013 217 l 1006 200 l 1000 183 q 953 100 978 135 q 894 43 929 65 q 810 10 860 21 q 685 0 760 0 l 43 0 l 315 736 "},"c":{"ha":867,"x_min":183,"x_max":1139,"o":"m 183 342 q 213 478 183 408 q 293 606 243 549 q 410 700 343 664 q 550 736 476 736 l 1139 736 q 1040 616 1088 669 q 942 519 993 563 l 590 519 q 559 509 575 519 q 527 482 543 499 q 499 445 511 465 q 479 404 486 425 l 479 406 q 472 378 475 390 q 469 357 469 367 q 481 310 469 335 q 510 265 492 286 q 549 231 528 244 q 590 217 571 217 l 946 217 q 860 101 907 158 q 756 0 814 44 l 643 0 q 475 15 557 0 q 328 69 393 31 q 223 173 263 107 q 183 339 183 239 l 183 342 "},"d":{"ha":906,"x_min":43,"x_max":1082,"o":"m 993 322 q 1060 444 1038 381 q 1082 563 1082 508 q 1041 688 1082 639 q 910 736 1000 736 l 315 736 l 43 0 l 404 0 q 593 17 510 0 q 745 74 676 35 q 874 174 814 113 q 993 324 933 236 l 993 322 m 739 519 q 758 510 753 519 q 764 486 764 500 q 759 461 764 475 q 749 432 754 447 l 750 433 q 746 426 747 431 q 742 417 744 421 q 728 393 735 403 q 715 376 721 383 l 717 378 q 713 373 715 376 q 708 364 711 369 l 710 365 q 657 311 690 338 q 584 264 624 285 q 504 230 544 243 q 431 217 464 217 l 424 217 l 536 519 l 739 519 "},"e":{"ha":863,"x_min":43,"x_max":1124,"o":"m 315 736 l 1124 736 q 1085 678 1113 714 q 1028 606 1058 642 q 971 545 999 571 q 931 519 943 519 l 532 519 l 490 404 l 561 474 l 929 474 l 696 257 l 435 257 l 419 217 l 936 217 q 926 197 933 211 q 909 169 918 183 q 892 142 900 154 q 883 128 885 129 l 885 131 q 849 92 872 114 q 803 49 826 69 q 763 14 781 28 q 743 0 744 0 l 43 0 l 315 736 "},"f":{"ha":858,"x_min":43,"x_max":1124,"o":"m 315 736 l 1124 736 q 1085 678 1113 714 q 1028 606 1058 642 q 971 545 999 571 q 931 519 943 519 l 532 519 l 490 404 l 561 474 l 929 474 l 696 257 l 435 257 l 340 0 l 43 0 l 315 736 "},"g":{"ha":879,"x_min":183,"x_max":1139,"o":"m 1036 474 l 682 474 q 635 428 661 457 q 587 369 610 399 q 547 315 564 339 q 529 286 531 292 l 529 263 l 671 263 l 654 217 l 590 217 q 548 231 569 217 q 509 265 526 244 q 481 310 492 286 q 469 357 469 335 q 472 378 469 367 q 479 406 475 390 l 479 404 q 497 445 486 425 q 523 482 508 465 q 555 509 538 499 q 590 519 572 519 l 942 519 q 1040 616 993 563 q 1139 736 1088 669 l 550 736 q 410 699 476 736 q 293 605 343 663 q 213 476 243 547 q 183 339 183 406 q 223 173 183 239 q 328 69 263 107 q 475 15 393 31 q 643 0 557 0 l 854 0 l 1036 474 "},"h":{"ha":903,"x_min":43,"x_max":1158,"o":"m 43 0 l 317 736 l 615 736 l 485 388 l 564 467 l 761 467 l 863 736 l 1158 736 l 885 0 l 589 0 l 682 250 l 435 250 l 342 0 l 43 0 "},"i":{"ha":353,"x_min":44,"x_max":594,"o":"m 44 0 l 308 736 l 594 736 l 332 0 l 44 0 "},"j":{"ha":792,"x_min":29,"x_max":1046,"o":"m 29 0 q 104 117 65 63 q 190 217 143 171 l 468 217 q 511 229 490 217 q 549 259 532 242 q 581 297 567 276 q 603 335 594 318 l 601 332 l 751 736 l 1046 736 l 907 361 q 844 206 875 274 q 769 93 813 139 q 664 24 725 47 q 513 0 603 0 l 29 0 "},"k":{"ha":964,"x_min":43,"x_max":1261,"o":"m 43 0 l 317 736 l 617 736 l 511 456 l 908 736 l 1261 736 l 765 364 l 1035 0 l 697 0 l 451 292 l 343 0 l 43 0 "},"l":{"ha":765,"x_min":43,"x_max":808,"o":"m 43 0 l 656 0 q 706 54 678 18 q 756 126 733 90 q 794 190 779 163 q 804 217 808 217 l 414 217 l 604 736 l 311 736 l 43 0 "},"m":{"ha":1154,"x_min":43,"x_max":1411,"o":"m 1136 0 l 836 0 l 956 326 l 651 0 l 532 0 l 469 335 l 344 0 l 43 0 l 318 736 l 675 736 l 739 408 l 1049 736 l 1411 736 l 1136 0 "},"n":{"ha":903,"x_min":43,"x_max":1158,"o":"m 43 0 l 317 736 l 671 736 l 736 399 l 863 736 l 1158 736 l 885 0 l 531 0 l 467 336 l 342 0 l 43 0 "},"o":{"ha":1011,"x_min":164,"x_max":1144,"o":"m 456 343 l 458 347 l 458 340 q 466 297 458 319 q 487 258 474 275 q 518 228 500 240 q 556 217 536 217 l 667 217 q 699 227 676 217 q 744 254 721 238 q 790 291 768 271 q 824 331 813 311 q 838 358 835 347 l 843 372 q 845 385 844 379 q 847 399 846 392 l 847 424 q 844 458 847 442 q 831 489 840 475 q 805 511 822 503 q 761 519 788 519 l 631 519 q 589 509 611 519 q 545 482 567 499 q 506 444 524 465 q 476 403 488 424 l 478 404 q 466 376 471 389 q 460 356 461 364 l 456 343 m 1139 394 q 1085 246 1126 317 q 981 120 1043 175 q 842 33 919 65 q 682 0 765 0 l 525 0 q 381 13 447 0 q 267 56 315 25 q 191 140 218 88 q 164 271 164 192 q 165 305 164 288 q 169 342 167 322 q 220 488 179 417 q 321 613 261 558 q 453 702 381 668 q 600 736 526 736 l 799 736 q 942 722 878 736 q 1051 675 1007 707 q 1120 594 1096 643 q 1144 474 1144 544 q 1143 433 1144 453 q 1139 393 1142 414 l 1139 394 "},"p":{"ha":929,"x_min":43,"x_max":1097,"o":"m 532 518 l 489 403 l 567 469 l 788 469 q 792 480 788 469 q 799 500 796 490 l 799 503 l 800 501 q 795 512 797 506 q 793 518 793 518 l 532 518 m 43 0 l 315 736 l 942 736 q 1014 714 985 736 q 1062 659 1043 692 q 1089 590 1081 626 q 1097 524 1097 553 q 1069 414 1097 464 q 996 328 1040 364 q 899 273 951 293 q 797 253 846 253 l 435 253 l 342 0 l 43 0 "},"q":{"ha":974,"x_min":165,"x_max":1115,"o":"m 458 342 q 465 303 458 322 q 482 266 471 283 q 508 236 493 249 q 540 219 524 224 l 469 375 l 792 375 l 807 344 q 814 360 811 349 l 819 374 q 821 385 821 378 q 822 396 821 392 l 822 408 q 818 448 822 428 q 802 484 814 468 q 771 510 790 500 q 722 521 751 521 l 631 521 q 589 510 611 521 q 544 483 567 500 q 504 444 522 465 q 475 403 486 424 l 476 404 q 465 376 469 389 q 458 349 460 363 l 458 342 m 1108 396 q 1047 242 1096 319 q 928 101 999 164 l 1000 -37 l 690 -37 l 667 0 l 560 0 q 409 13 481 0 q 283 57 338 25 q 197 143 229 89 q 165 281 165 197 q 169 343 165 311 q 222 489 181 418 q 322 615 263 560 q 453 704 381 671 q 600 738 526 738 l 775 738 q 914 720 851 738 q 1022 669 976 703 q 1091 584 1067 635 q 1115 467 1115 533 q 1113 432 1115 449 q 1108 396 1111 415 "},"r":{"ha":961,"x_min":43,"x_max":1092,"o":"m 793 515 q 789 521 793 521 l 533 521 l 494 414 l 551 472 l 775 472 q 789 483 785 472 q 793 501 793 493 l 793 515 m 43 0 l 315 736 l 925 736 q 1013 714 979 736 q 1063 659 1046 692 q 1086 588 1081 626 q 1092 515 1092 549 q 1063 403 1092 449 q 987 330 1033 358 q 883 288 940 301 q 772 268 826 274 l 1038 0 l 697 0 l 431 242 l 342 0 l 43 0 "},"s":{"ha":911,"x_min":54,"x_max":1175,"o":"m 686 249 l 686 233 q 681 215 686 215 l 225 215 q 195 188 219 215 q 142 123 171 160 q 88 51 114 86 q 54 0 63 15 l 768 0 q 846 24 808 0 q 913 83 883 47 q 959 161 942 119 q 976 240 976 203 l 976 249 q 967 321 976 282 q 935 393 957 360 q 880 449 914 426 q 796 472 846 472 l 540 472 q 536 475 540 472 q 529 481 532 478 l 524 486 q 522 484 522 488 q 521 479 521 481 l 521 486 q 526 506 521 493 q 538 518 531 518 l 986 518 q 1175 736 1093 617 l 454 736 q 372 710 413 736 q 298 644 331 683 q 245 562 265 606 q 225 483 225 518 q 239 407 225 446 q 278 335 253 368 q 340 282 304 303 q 421 261 376 261 l 688 261 q 686 257 686 261 l 686 249 "},"t":{"ha":844,"x_min":235,"x_max":1107,"o":"m 286 0 l 476 519 l 235 519 l 235 542 q 256 574 236 547 q 301 632 275 600 q 356 694 328 664 q 404 736 385 724 l 1107 736 q 1069 678 1096 714 q 1013 606 1043 642 q 956 545 983 571 q 917 519 929 519 l 774 519 l 582 0 l 286 0 "},"u":{"ha":938,"x_min":156,"x_max":1193,"o":"m 201 421 q 193 389 196 401 q 185 361 190 376 l 185 363 q 171 320 176 339 q 161 282 165 301 q 157 247 158 263 q 156 217 156 232 q 172 117 156 158 q 229 50 189 76 q 336 12 269 24 q 503 0 403 0 l 658 0 q 803 25 743 0 q 910 99 864 50 q 992 220 956 149 q 1063 385 1028 292 l 1193 736 l 897 736 l 749 332 l 750 335 q 727 297 742 318 q 693 259 713 276 q 649 229 674 242 q 596 217 625 217 l 531 217 q 488 238 507 217 q 468 294 468 258 q 475 332 468 301 q 477 347 475 336 q 492 397 479 357 q 533 515 506 436 q 610 736 560 594 l 315 736 l 201 421 "},"v":{"ha":1015,"x_min":292,"x_max":1294,"o":"m 624 296 l 971 736 l 1294 736 l 797 89 q 777 66 790 81 q 747 37 764 51 q 714 11 731 22 q 683 0 697 0 l 464 0 q 431 14 444 0 q 408 48 418 28 q 391 92 397 68 q 381 135 385 115 l 382 133 q 380 142 381 136 q 378 150 379 147 l 292 736 l 564 736 l 624 296 "},"w":{"ha":1201,"x_min":132,"x_max":1458,"o":"m 319 736 l 614 736 l 486 367 l 488 369 q 485 356 486 364 q 481 340 483 349 l 481 342 q 473 308 476 325 q 469 292 469 292 q 488 242 469 251 q 531 229 506 232 q 542 228 535 228 q 551 226 549 228 l 742 736 l 1040 736 l 846 215 l 965 215 l 1161 736 l 1458 736 l 1183 0 l 450 0 q 299 16 360 0 q 201 58 238 32 q 148 120 164 85 q 132 194 132 156 q 137 242 132 219 q 151 288 142 264 l 319 736 "},"x":{"ha":910,"x_min":6,"x_max":1201,"o":"m 528 154 l 350 0 l 6 0 l 438 375 l 288 736 l 618 736 l 679 585 l 856 736 l 1201 736 l 772 364 l 921 0 l 593 0 l 528 154 "},"y":{"ha":897,"x_min":283,"x_max":1186,"o":"m 314 0 l 442 350 l 283 736 l 610 736 l 671 585 l 844 736 l 1186 736 l 733 339 l 608 0 l 314 0 "},"z":{"ha":851,"x_min":15,"x_max":1133,"o":"m 15 0 l 567 519 l 238 519 l 238 542 q 258 574 239 547 q 305 632 278 600 q 360 694 332 664 q 408 736 389 724 l 1133 736 l 582 217 l 924 217 q 886 159 913 196 q 830 87 860 122 q 772 26 800 51 q 732 0 744 0 l 15 0 "},"{":{"ha":765,"x_min":101,"x_max":1049,"o":"m 536 832 l 406 478 l 333 478 l 101 258 l 328 258 l 207 -75 l 613 -75 q 633 -60 615 -75 q 673 -26 650 -46 q 718 17 696 -6 q 753 57 740 40 l 751 54 q 760 67 753 56 q 776 95 767 79 q 793 125 785 111 q 804 144 801 139 l 581 144 l 751 614 l 857 614 q 897 640 869 614 q 955 701 925 665 q 1011 773 985 736 q 1049 832 1038 810 l 536 832 "},"|":{"ha":353,"x_min":-24,"x_max":667,"o":"m -24 -189 l 375 936 l 667 936 l 268 -189 l -24 -189 "},"}":{"ha":765,"x_min":15,"x_max":965,"o":"m 529 -75 l 658 279 l 731 279 l 965 499 l 739 499 l 860 832 l 453 832 q 434 817 451 832 q 394 783 417 803 q 348 740 371 763 q 313 700 325 717 l 314 703 q 305 689 313 701 q 289 661 297 676 q 273 632 281 646 q 263 613 265 618 l 483 613 l 313 143 l 208 143 q 168 117 196 143 q 110 56 140 92 q 53 -16 79 21 q 15 -75 26 -53 l 529 -75 "},"~":{"ha":564,"x_min":104,"x_max":721,"o":"m 335 410 q 311 403 324 410 q 289 389 299 396 l 288 388 l 104 222 l 285 222 l 356 286 l 392 222 l 515 222 q 539 228 528 222 q 560 240 550 235 q 561 240 561 242 l 563 242 q 659 328 625 297 q 707 374 693 358 q 719 397 721 390 q 710 410 718 403 l 565 410 l 496 344 l 461 410 l 335 410 "},"":{"ha":243,"x_min":0,"x_max":0,"o":""},"€":{"ha":1019,"x_min":69,"x_max":1294,"o":"m 932 360 l 756 360 l 986 504 l 700 504 q 740 519 719 519 l 1096 519 q 1195 616 1147 563 q 1294 736 1243 669 l 700 736 q 598 717 647 736 q 506 667 549 699 q 429 592 464 635 q 372 504 394 550 l 353 504 l 122 360 l 300 360 l 69 215 l 351 215 q 419 111 374 153 q 525 44 465 69 q 654 10 585 19 q 794 0 724 0 l 908 0 q 1013 101 967 44 q 1100 217 1060 158 l 740 217 q 713 222 724 217 l 932 360 "},"‚":{"ha":274,"x_min":57,"x_max":299,"o":"m 58 54 q 58 38 58 47 q 57 15 57 28 q 69 -55 57 -22 q 117 -87 81 -87 l 128 -87 q 163 -74 140 -87 q 207 -40 185 -60 q 248 3 229 -19 q 274 46 267 26 l 292 97 q 299 133 299 121 q 276 187 299 165 q 215 208 254 208 q 133 179 171 208 q 78 110 94 150 l 58 54 "},"ƒ":{"ha":1201,"x_min":185,"x_max":1338,"o":"m 1332 392 q 1333 398 1332 393 q 1333 404 1333 403 q 1288 457 1333 425 q 1328 503 1315 474 l 1331 508 l 1338 531 l 1226 567 q 1239 587 1233 576 q 1250 608 1244 597 l 1231 644 l 1079 644 l 1104 689 l 1024 700 l 899 675 l 904 682 l 865 731 l 704 656 l 660 704 q 598 668 628 692 q 528 607 568 644 l 467 636 l 458 636 q 369 522 408 636 l 288 532 l 254 464 l 269 419 l 194 406 l 185 342 l 235 308 l 192 281 q 186 249 186 268 q 217 217 186 218 l 283 200 l 278 196 l 256 138 l 433 121 l 417 93 l 454 61 l 621 89 l 608 54 l 654 36 l 813 111 l 838 67 l 894 79 l 990 158 q 1021 140 1007 147 q 1053 133 1035 133 q 1107 168 1085 133 l 1143 243 l 1196 231 q 1253 279 1238 246 l 1253 278 l 1257 288 q 1258 294 1257 290 q 1258 299 1258 297 q 1258 301 1258 300 q 1257 303 1257 301 l 1243 344 l 1294 344 l 1325 386 l 1324 383 l 1332 392 m 894 483 l 818 465 l 813 454 l 761 472 l 732 401 l 692 496 l 675 447 q 629 467 660 467 l 608 467 q 594 458 601 463 q 579 449 586 454 l 593 476 q 467 435 513 464 l 485 475 l 413 460 l 342 311 l 282 357 l 351 364 l 321 453 l 324 465 l 410 457 l 458 558 q 511 538 485 538 q 542 543 532 538 l 642 628 l 676 583 l 828 651 l 815 600 l 1001 629 l 971 581 l 1135 581 l 1079 544 l 1233 503 l 1146 479 l 1164 467 l 1124 478 l 1115 460 l 1068 481 l 1036 407 l 997 501 l 981 456 q 947 476 972 476 q 908 464 929 476 q 887 442 897 453 q 868 418 876 431 l 894 483 m 935 278 l 936 283 l 982 286 l 994 322 q 1040 286 1015 286 l 1063 242 l 1081 258 l 1058 204 l 983 236 l 878 142 l 836 186 l 692 122 l 678 171 l 517 136 l 550 181 l 378 189 l 438 224 l 289 264 l 328 281 l 321 264 l 408 292 l 410 296 q 454 267 418 267 q 460 267 456 267 q 472 269 465 268 q 485 273 475 271 q 499 276 494 275 l 504 297 q 556 278 517 278 q 575 279 571 278 l 571 279 q 573 280 572 279 q 576 281 574 281 q 624 306 600 281 l 611 271 l 679 283 l 690 314 q 735 281 707 285 l 731 272 l 796 292 l 858 292 q 892 326 888 325 q 890 300 889 325 l 918 286 l 917 282 l 925 282 l 935 278 m 1193 297 l 1106 315 l 1106 314 l 1078 328 l 1072 324 l 1075 329 l 1121 319 l 1160 394 q 1184 333 1176 358 q 1193 297 1192 308 m 1188 449 l 1249 404 l 1161 399 l 1188 449 m 504 336 q 489 335 500 335 l 482 335 q 467 333 478 333 q 468 335 468 333 q 503 385 478 360 q 531 401 524 401 q 531 401 531 401 q 535 399 532 400 q 519 369 526 385 q 504 336 511 354 m 613 386 q 593 354 608 374 q 582 349 586 351 q 575 346 578 347 q 576 353 575 351 l 576 351 l 581 360 q 613 394 603 389 l 613 392 q 611 385 611 390 l 613 386 m 615 396 q 614 394 614 396 l 613 394 l 614 394 q 615 396 614 396 "},"„":{"ha":515,"x_min":60,"x_max":542,"o":"m 63 54 q 60 38 61 47 q 60 15 60 28 q 63 -22 60 -4 q 72 -55 65 -40 q 92 -78 79 -69 q 125 -87 106 -87 l 136 -87 q 167 -77 147 -87 q 207 -51 186 -67 q 248 -15 228 -35 q 281 22 268 4 l 281 15 q 283 -22 281 -4 q 294 -55 286 -40 q 314 -78 301 -69 q 346 -87 326 -87 l 358 -87 q 394 -74 371 -87 q 443 -40 418 -60 q 488 3 468 -19 q 515 46 508 26 l 535 97 q 542 133 542 121 q 517 187 542 165 q 453 208 493 208 q 378 189 414 208 q 321 139 343 169 q 294 189 318 169 q 231 208 271 208 q 142 179 183 208 q 83 110 100 150 l 63 54 "},"…":{"ha":764,"x_min":76,"x_max":792,"o":"m 85 104 q 146 169 103 142 q 238 196 189 196 q 303 176 278 196 q 329 128 328 157 q 390 176 353 157 q 467 196 426 196 q 534 176 510 196 q 558 125 558 157 l 558 122 q 619 175 581 154 q 700 196 658 196 q 767 176 743 196 q 792 125 792 157 q 785 92 792 113 q 726 26 769 53 q 633 0 682 0 q 565 19 590 0 q 540 71 540 39 q 481 19 519 39 q 400 0 442 0 q 335 19 360 0 q 307 65 310 38 q 247 19 285 38 q 169 0 210 0 q 102 19 128 0 q 76 71 76 39 q 85 103 76 86 l 85 104 "},"†":{"ha":590,"x_min":146,"x_max":824,"o":"m 164 0 l 454 0 l 590 381 l 596 381 l 824 597 l 668 597 l 719 736 l 429 736 l 376 597 l 374 597 l 146 381 l 300 381 l 164 0 "},"‡":{"ha":594,"x_min":57,"x_max":831,"o":"m 165 0 l 457 0 l 506 135 l 511 135 l 740 351 l 585 351 l 596 381 l 600 381 l 831 597 l 674 597 l 725 736 l 432 736 l 381 597 l 376 597 l 146 381 l 301 381 l 290 351 l 288 351 l 57 135 l 214 135 l 165 0 "},"ˆ":{"ha":403,"x_min":197,"x_max":603,"o":"m 460 457 l 603 457 l 529 589 l 522 596 l 522 594 q 506 612 515 604 q 483 619 497 619 l 406 619 q 384 613 394 619 q 367 603 374 607 l 197 457 l 365 457 l 426 511 l 460 457 "},"‰":{"ha":1565,"x_min":90,"x_max":1626,"o":"m 1310 186 l 1310 185 q 1317 162 1310 174 q 1336 150 1325 150 l 1371 150 q 1395 163 1379 150 q 1422 193 1411 176 l 1425 196 q 1426 199 1425 197 l 1426 197 l 1431 208 q 1429 221 1429 207 q 1425 238 1429 231 q 1407 244 1421 244 l 1367 244 q 1340 232 1354 244 q 1317 204 1326 219 l 1318 208 l 1310 186 m 843 186 l 843 185 q 851 162 843 174 q 869 150 858 150 l 904 150 q 928 163 913 150 q 956 193 944 176 l 958 196 q 960 199 958 197 l 960 197 l 964 208 q 963 221 963 207 q 958 238 963 231 q 940 244 954 244 l 900 244 q 874 232 889 244 q 850 204 860 219 l 851 208 l 843 186 m 433 535 l 433 533 q 440 510 433 522 q 458 499 447 499 l 493 499 q 518 510 501 499 q 543 538 535 522 q 546 542 544 540 q 549 546 547 543 q 550 550 549 549 l 549 549 l 553 557 l 553 569 q 548 586 553 579 q 531 593 543 593 l 489 593 q 463 580 478 593 q 439 551 449 567 l 440 556 l 433 535 m 744 551 q 743 539 744 542 l 743 543 q 742 538 742 542 l 736 519 q 735 518 736 518 l 735 517 l 1007 736 l 1307 736 l 872 386 q 885 388 875 388 l 974 388 q 1099 361 1049 388 q 1158 268 1149 335 q 1197 313 1175 292 q 1244 351 1219 335 q 1297 378 1269 368 q 1350 388 1324 388 l 1439 388 q 1574 355 1521 388 q 1626 244 1626 322 q 1622 204 1626 222 q 1621 197 1622 197 l 1621 194 l 1613 171 q 1578 108 1601 139 q 1524 53 1556 78 q 1456 15 1493 29 q 1381 0 1419 0 l 1313 0 q 1181 25 1233 0 q 1121 121 1129 50 q 1081 74 1104 96 q 1031 36 1058 53 q 974 10 1004 19 q 914 0 944 0 l 846 0 q 769 7 804 0 q 708 31 735 14 q 667 75 682 47 q 653 146 653 103 q 653 165 653 157 q 656 182 654 172 q 660 199 657 190 q 665 217 663 208 q 667 220 665 219 q 668 224 668 221 l 388 0 l 90 0 l 526 350 q 514 349 522 349 l 503 349 l 436 349 q 359 356 394 349 q 297 379 324 363 q 256 424 271 396 q 242 494 242 451 q 242 513 242 504 q 244 529 243 521 q 249 547 246 539 q 254 565 251 556 q 290 628 267 597 q 342 683 313 658 q 406 722 372 707 q 475 736 440 736 l 564 736 q 697 704 644 736 q 749 594 749 672 q 744 551 749 572 "},"Š":{"ha":911,"x_min":54,"x_max":1175,"o":"m 686 251 l 686 236 q 681 218 686 218 l 225 218 q 195 190 219 218 q 142 126 171 163 q 88 53 114 89 q 54 0 63 17 l 768 0 q 846 24 808 0 q 913 85 883 49 q 959 164 942 121 q 976 244 976 207 l 976 249 q 965 322 976 282 q 930 397 953 363 q 873 455 907 432 q 796 478 839 478 l 540 478 q 536 481 540 478 q 529 488 532 485 l 524 493 q 522 491 522 494 q 521 486 521 488 l 521 493 q 526 513 521 500 q 538 525 531 525 l 986 525 q 1175 746 1092 625 l 454 746 q 372 719 413 746 q 298 652 331 692 q 245 569 265 613 q 225 490 225 525 q 239 413 225 453 q 278 340 253 374 q 340 286 304 307 q 421 265 376 265 l 688 265 q 686 260 686 265 l 686 251 m 582 983 l 661 824 q 665 819 664 821 q 668 815 665 818 l 667 817 q 685 797 675 806 q 711 788 694 788 l 794 788 q 817 795 806 788 q 835 807 829 803 l 1017 983 l 836 983 l 771 918 l 736 983 l 582 983 "},"‹":{"ha":235,"x_min":146,"x_max":418,"o":"m 363 415 l 418 576 l 224 443 q 197 420 213 435 q 176 392 182 406 l 150 319 q 147 310 147 314 q 146 303 146 306 q 151 284 146 293 q 161 269 157 275 l 276 168 l 329 319 l 282 358 l 363 415 "},"Œ":{"ha":1454,"x_min":186,"x_max":1717,"o":"m 186 339 q 226 173 186 239 q 333 69 267 107 q 483 15 399 31 q 653 0 567 0 l 1333 0 q 1353 14 1335 0 q 1394 49 1371 28 q 1440 92 1417 69 q 1476 131 1464 114 l 1475 128 q 1484 142 1476 129 q 1501 169 1492 154 q 1517 197 1510 183 q 1528 217 1525 211 l 1006 217 l 1021 257 l 1285 257 l 1521 474 l 1150 474 l 1078 404 l 1119 519 l 1522 519 q 1564 545 1536 519 q 1622 606 1592 571 q 1679 678 1653 642 q 1717 736 1706 714 l 558 736 q 416 699 483 736 q 297 605 349 663 q 216 476 246 547 q 186 339 186 406 m 478 357 q 481 378 478 367 q 488 406 483 390 l 488 404 q 506 445 494 425 q 531 482 517 465 q 563 509 546 499 q 599 519 581 519 l 818 519 l 704 217 l 599 217 q 558 231 579 217 q 518 265 536 244 q 489 310 500 286 q 478 357 478 335 "},"Ž":{"ha":851,"x_min":15,"x_max":1133,"o":"m 732 0 q 772 26 744 0 q 830 88 800 53 q 886 160 860 124 q 924 219 913 197 l 582 219 l 1133 746 l 408 746 q 360 703 389 733 q 305 640 332 672 q 258 581 278 608 q 238 549 239 554 l 238 526 l 567 526 l 15 0 l 732 0 m 582 983 l 661 824 q 665 819 664 821 q 668 815 665 818 l 667 817 q 684 797 674 806 q 710 788 694 788 l 793 788 q 816 795 804 788 q 835 807 828 803 l 1017 983 l 836 983 l 771 918 l 736 983 l 582 983 "},"‘":{"ha":236,"x_min":210,"x_max":410,"o":"m 408 544 q 410 564 410 549 l 410 589 q 401 647 410 621 q 363 672 392 672 l 354 672 q 326 660 344 672 q 289 629 308 647 q 253 590 269 611 q 231 553 236 569 l 215 508 q 210 474 210 496 q 227 426 210 444 q 276 407 244 407 q 346 433 313 407 q 392 496 379 460 l 408 544 "},"’":{"ha":236,"x_min":224,"x_max":425,"o":"m 226 535 q 224 517 225 528 q 224 490 224 506 q 234 433 224 458 q 272 408 244 408 l 282 408 q 310 421 292 408 q 347 451 328 433 q 382 490 365 469 q 406 528 399 511 l 419 572 q 424 590 424 581 q 425 606 425 599 q 408 655 425 636 q 357 674 390 674 q 289 647 321 674 q 243 585 257 621 l 226 535 "},"“":{"ha":439,"x_min":229,"x_max":631,"o":"m 628 544 q 630 564 629 551 q 631 589 631 576 q 621 647 631 621 q 579 672 611 672 l 569 672 q 545 663 561 672 q 512 641 529 654 q 477 610 494 628 q 449 576 460 593 l 449 589 q 439 647 449 621 q 397 672 429 672 l 386 672 q 355 660 375 672 q 314 629 335 647 q 276 590 293 611 q 251 553 258 569 l 236 508 q 231 491 232 500 q 229 474 229 482 q 248 426 229 444 q 303 407 267 407 q 363 424 333 407 q 411 465 392 440 q 432 423 414 439 q 485 407 450 407 q 560 433 524 407 q 611 496 596 460 l 628 544 "},"”":{"ha":439,"x_min":243,"x_max":646,"o":"m 246 535 q 244 517 244 528 q 243 490 243 506 q 253 433 243 458 q 296 408 264 408 l 306 408 q 331 417 315 408 q 363 439 346 425 q 397 469 381 453 q 426 501 414 485 l 426 490 q 437 433 426 458 q 479 408 447 408 l 489 408 q 519 421 499 408 q 560 451 539 433 q 599 490 581 469 q 624 528 617 511 l 640 572 q 646 606 646 585 q 627 655 646 636 q 572 674 608 674 q 512 657 540 674 q 464 614 483 640 q 389 674 457 674 q 315 647 350 674 q 264 585 279 621 l 246 535 "},"•":{"ha":478,"x_min":169,"x_max":593,"o":"m 171 343 q 169 335 169 342 l 169 322 q 180 269 169 296 q 208 219 190 242 q 250 183 226 197 q 300 168 274 168 l 383 168 q 424 178 400 168 q 473 206 447 189 q 522 246 499 224 q 561 290 546 268 q 555 321 557 301 q 553 358 553 340 l 590 358 l 590 360 q 592 383 592 371 q 593 408 593 394 q 587 453 593 432 q 567 492 581 475 q 529 519 553 508 q 472 529 506 529 l 371 529 q 322 517 349 529 q 271 487 296 506 q 224 444 246 468 q 190 397 203 421 q 178 369 183 382 q 171 343 172 356 m 588 343 l 583 331 q 577 316 582 324 q 565 297 572 308 l 567 299 q 564 294 565 296 q 561 290 563 293 q 567 281 564 283 q 573 283 569 278 q 580 303 576 289 q 588 343 583 317 m 583 331 l 582 328 l 583 331 "},"–":{"ha":492,"x_min":99,"x_max":678,"o":"m 453 222 l 99 222 l 324 410 l 678 410 l 453 222 "},"—":{"ha":590,"x_min":100,"x_max":778,"o":"m 550 222 l 100 222 l 328 410 l 778 410 l 550 222 "},"˜":{"ha":529,"x_min":204,"x_max":768,"o":"m 419 619 q 397 613 408 619 q 379 603 386 607 l 204 457 l 378 457 l 442 511 l 475 457 l 592 457 q 610 462 600 457 q 632 474 621 467 l 631 472 q 633 474 632 472 q 731 554 701 529 q 768 586 760 579 l 760 586 l 760 619 l 633 619 l 571 565 l 536 619 l 419 619 "},"š":{"ha":911,"x_min":54,"x_max":1175,"o":"m 686 251 l 686 236 q 681 218 686 218 l 225 218 q 195 190 219 218 q 142 126 171 163 q 88 53 114 89 q 54 0 63 17 l 768 0 q 846 24 808 0 q 913 85 883 49 q 959 164 942 121 q 976 244 976 207 l 976 249 q 965 322 976 282 q 930 397 953 363 q 873 455 907 432 q 796 478 839 478 l 540 478 q 536 481 540 478 q 529 488 532 485 l 524 493 q 522 491 522 494 q 521 486 521 488 l 521 493 q 526 513 521 500 q 538 525 531 525 l 986 525 q 1175 746 1092 625 l 454 746 q 372 719 413 746 q 298 652 331 692 q 245 569 265 613 q 225 490 225 525 q 239 413 225 453 q 278 340 253 374 q 340 286 304 307 q 421 265 376 265 l 688 265 q 686 260 686 265 l 686 251 m 582 983 l 661 824 q 665 819 664 821 q 668 815 665 818 l 667 817 q 685 797 675 806 q 711 788 694 788 l 794 788 q 817 795 806 788 q 835 807 829 803 l 1017 983 l 836 983 l 771 918 l 736 983 l 582 983 "},"›":{"ha":235,"x_min":90,"x_max":361,"o":"m 90 150 l 283 282 q 310 305 294 290 q 332 335 326 319 l 358 411 q 361 424 361 419 q 356 441 361 433 q 347 454 351 449 l 224 569 l 224 532 l 179 407 l 226 367 l 146 311 l 90 150 "},"œ":{"ha":1454,"x_min":186,"x_max":1717,"o":"m 186 339 q 226 173 186 239 q 333 69 267 107 q 483 15 399 31 q 653 0 567 0 l 1333 0 q 1353 14 1335 0 q 1394 49 1371 28 q 1440 92 1417 69 q 1476 131 1464 114 l 1475 128 q 1484 142 1476 129 q 1501 169 1492 154 q 1517 197 1510 183 q 1528 217 1525 211 l 1006 217 l 1021 257 l 1285 257 l 1521 474 l 1150 474 l 1078 404 l 1119 519 l 1522 519 q 1564 545 1536 519 q 1622 606 1592 571 q 1679 678 1653 642 q 1717 736 1706 714 l 558 736 q 416 700 483 736 q 297 606 349 664 q 216 478 246 549 q 186 342 186 408 l 186 339 m 478 357 q 481 378 478 367 q 488 406 483 390 l 488 404 q 506 445 494 425 q 531 482 517 465 q 563 509 546 499 q 599 519 581 519 l 818 519 l 704 217 l 599 217 q 558 231 579 217 q 518 265 536 244 q 489 310 500 286 q 478 357 478 335 "},"ž":{"ha":851,"x_min":15,"x_max":1133,"o":"m 732 0 q 772 26 744 0 q 830 88 800 53 q 886 160 860 124 q 924 219 913 197 l 582 219 l 1133 746 l 408 746 q 360 703 389 733 q 305 640 332 672 q 258 581 278 608 q 238 549 239 554 l 238 526 l 567 526 l 15 0 l 732 0 m 582 983 l 661 824 q 665 819 664 821 q 668 815 665 818 l 667 817 q 684 797 674 806 q 710 788 694 788 l 793 788 q 816 795 804 788 q 835 807 828 803 l 1017 983 l 836 983 l 771 918 l 736 983 l 582 983 "},"Ÿ":{"ha":897,"x_min":283,"x_max":1186,"o":"m 608 0 l 733 344 l 1186 746 l 844 746 l 671 593 l 610 746 l 283 746 l 442 354 l 314 0 l 608 0 m 564 897 q 558 878 560 888 q 557 863 557 869 q 579 810 557 831 q 638 790 601 790 q 717 817 679 790 q 769 882 754 843 l 769 881 q 774 899 774 890 q 775 915 775 908 q 753 967 775 947 q 694 988 732 988 q 615 961 653 988 q 564 896 578 935 l 564 897 m 1008 881 q 1014 899 1013 890 q 1015 915 1015 908 q 994 967 1015 947 q 936 988 972 988 q 856 960 894 988 q 803 894 818 933 q 797 864 797 878 q 819 811 797 832 q 879 790 842 790 q 958 817 921 790 q 1008 882 994 843 l 1008 881 "},"¡":{"ha":344,"x_min":42,"x_max":531,"o":"m 367 511 q 307 537 329 514 q 285 594 285 560 q 293 631 285 611 q 351 706 310 675 q 440 736 392 736 q 506 714 482 736 q 531 656 531 692 q 528 638 531 649 q 522 618 526 628 q 465 544 507 574 q 379 511 424 514 l 508 511 l 326 0 l 42 0 l 224 511 l 367 511 "},"¢":{"ha":867,"x_min":183,"x_max":1139,"o":"m 469 361 q 485 307 469 335 q 522 257 500 279 l 621 529 l 590 529 q 554 519 571 529 q 523 492 538 508 q 497 454 508 475 q 479 413 486 433 l 479 414 q 472 386 475 399 q 469 364 469 374 l 469 361 m 361 -190 l 438 24 q 335 63 382 38 q 255 128 289 89 q 202 222 221 168 q 183 346 183 275 l 183 349 q 213 488 183 417 q 293 618 243 560 q 410 713 343 676 q 550 750 476 750 l 700 750 l 768 935 l 976 935 l 910 750 l 1139 750 q 1040 628 1088 683 q 942 529 993 574 l 831 529 l 718 221 l 946 221 q 860 103 907 163 q 756 0 814 44 l 639 0 l 569 -190 l 361 -190 "},"£":{"ha":922,"x_min":7,"x_max":928,"o":"m 726 490 q 725 488 725 488 l 726 490 m 7 0 l 239 217 l 313 217 l 319 233 q 322 240 319 232 q 324 246 322 244 l 97 246 l 329 463 l 415 463 q 417 468 417 464 q 419 474 417 471 l 424 481 l 422 479 q 436 506 429 493 q 454 535 443 519 q 510 597 475 561 q 585 663 544 632 q 667 715 625 693 q 747 736 710 736 l 858 736 q 865 681 863 708 q 868 628 868 654 q 865 578 868 607 q 860 518 863 550 l 764 518 q 751 510 764 518 q 729 494 739 501 q 728 492 729 493 l 726 488 q 722 469 724 483 l 833 469 l 925 253 l 643 253 q 639 245 640 249 q 635 239 638 242 q 634 238 635 239 q 632 235 633 236 l 633 233 l 632 233 q 638 224 635 231 q 639 218 640 218 l 914 218 q 928 114 928 171 q 926 58 928 92 q 922 0 925 25 l 7 0 "},"¤":{"ha":910,"x_min":6,"x_max":1201,"o":"m 489 357 q 508 311 489 335 q 553 288 526 288 l 611 288 q 634 293 621 288 q 661 308 647 299 q 688 328 675 317 q 707 351 700 340 q 710 358 710 354 q 713 367 711 361 q 717 374 715 372 q 718 376 718 376 q 719 386 718 381 q 719 397 719 392 q 710 434 719 417 q 665 451 700 451 l 593 451 q 541 430 568 451 q 499 383 514 408 l 499 385 l 494 376 q 489 363 489 367 l 489 357 m 928 382 q 894 301 919 343 q 828 224 869 258 l 922 0 l 593 0 l 532 143 l 517 143 l 350 0 l 6 0 l 294 250 q 281 318 281 276 q 281 337 281 328 q 283 356 282 346 l 283 354 q 314 437 288 394 q 379 515 340 479 l 288 736 l 618 736 l 675 596 l 692 596 l 856 736 l 1201 736 l 915 489 q 926 458 922 474 q 931 421 931 442 q 930 401 931 410 q 928 383 929 393 l 928 382 "},"¥":{"ha":903,"x_min":92,"x_max":1194,"o":"m 315 0 l 613 0 l 644 83 l 721 83 l 951 228 l 775 228 l 1004 372 l 776 372 l 1194 736 l 850 736 l 676 585 l 614 736 l 286 736 l 435 372 l 374 372 l 144 228 l 321 228 l 92 83 l 346 83 l 315 0 "},"¦":{"ha":353,"x_min":-24,"x_max":667,"o":"m -24 -189 l 375 936 l 667 936 l 268 -189 l -24 -189 "},"§":{"ha":910,"x_min":6,"x_max":1201,"o":"m 490 365 q 489 354 490 356 q 509 309 490 331 q 553 288 528 288 l 611 288 q 634 293 621 288 q 661 308 647 299 q 688 328 675 317 q 707 351 700 340 q 710 358 710 354 q 713 367 711 361 q 717 374 715 372 q 718 376 718 376 q 719 386 718 381 q 719 397 719 392 q 710 434 719 417 q 665 451 700 451 l 593 451 q 542 431 568 451 q 500 386 515 410 l 489 363 l 490 365 m 928 381 q 924 367 926 375 l 924 369 q 919 355 921 361 q 915 342 918 349 l 915 343 q 817 214 893 274 q 697 164 763 185 q 547 143 632 143 l 517 143 l 350 0 l 6 0 l 294 250 q 281 318 281 276 q 281 337 281 328 q 283 356 282 346 q 289 382 283 369 q 291 388 290 383 q 293 396 292 393 q 331 462 306 429 q 388 522 356 494 q 523 581 456 567 q 663 596 590 596 l 692 596 l 856 736 l 1201 736 l 915 489 q 926 458 922 474 q 931 421 931 442 q 930 401 931 410 q 928 383 929 393 l 928 381 "},"¨":{"ha":489,"x_min":261,"x_max":700,"o":"m 268 544 q 261 517 261 531 q 282 472 261 489 q 339 456 303 456 q 415 478 379 456 q 464 532 450 500 q 471 560 471 546 q 450 603 471 588 q 393 619 429 619 q 317 598 353 619 q 268 543 281 576 l 268 544 m 694 532 q 700 560 700 543 q 624 619 700 619 q 547 597 583 619 q 497 543 511 575 q 492 529 494 535 q 490 517 490 524 q 512 473 490 490 q 569 456 533 456 q 645 478 610 456 q 694 532 681 500 "},"©":{"ha":371,"x_min":257,"x_max":585,"o":"m 332 615 q 339 631 338 624 q 331 616 335 624 q 325 601 328 608 l 325 603 q 318 568 318 579 q 319 557 318 561 q 340 526 324 543 l 339 526 q 349 522 343 524 q 361 517 354 519 q 324 575 324 531 q 332 617 324 593 l 332 615 m 457 704 q 515 647 515 700 l 515 629 l 458 615 q 443 649 451 649 q 392 603 410 649 l 392 604 q 386 579 386 592 q 399 572 386 572 q 449 608 425 572 l 504 592 q 511 603 508 597 q 517 617 514 610 l 517 615 q 524 651 524 639 l 524 658 q 516 678 521 669 q 501 693 511 688 q 463 704 490 704 l 457 704 m 471 763 q 540 742 507 763 q 582 681 578 718 q 584 671 583 676 q 585 657 585 665 q 575 603 585 626 q 528 529 561 563 l 528 531 q 457 476 496 493 q 402 461 424 467 q 372 456 381 456 q 301 475 333 456 q 275 503 286 489 q 260 539 264 518 q 258 551 258 546 q 257 565 257 557 q 267 617 257 596 l 267 615 q 286 653 274 635 q 314 690 299 671 q 390 744 347 726 q 471 763 431 763 "},"«":{"ha":418,"x_min":154,"x_max":615,"o":"m 556 415 l 615 576 l 408 443 q 400 436 406 440 q 389 428 394 432 l 442 574 l 238 442 q 210 419 226 433 q 186 390 193 406 l 158 318 q 155 309 156 314 q 154 301 154 304 q 160 283 154 292 q 169 268 167 275 l 290 167 l 333 281 q 342 269 340 274 l 343 269 l 342 269 l 464 168 l 521 319 l 471 358 l 556 415 m 358 392 l 333 329 l 300 357 l 360 399 q 359 394 360 396 q 358 392 358 393 "},"¬":{"ha":646,"x_min":100,"x_max":799,"o":"m 458 121 l 675 121 l 799 443 l 329 443 l 100 240 l 504 240 l 458 121 "},"­":{"ha":433,"x_min":99,"x_max":617,"o":"m 393 222 l 99 222 l 321 410 l 617 410 l 393 222 "},"®":{"ha":371,"x_min":258,"x_max":586,"o":"m 415 643 l 414 636 l 415 636 q 435 638 431 636 q 443 646 440 640 l 443 649 q 440 647 443 644 q 429 643 444 643 l 415 643 m 319 564 q 322 554 319 563 l 361 660 l 357 656 q 325 604 333 629 l 326 606 q 319 569 319 578 l 319 564 m 363 518 q 381 517 367 517 q 411 522 399 517 l 406 557 l 406 556 q 401 572 403 567 q 400 578 400 578 q 394 579 399 579 l 393 579 l 371 518 l 363 518 m 463 706 q 428 701 444 706 l 438 701 q 485 692 475 701 q 504 667 501 683 q 506 654 506 663 l 506 646 q 503 635 506 643 q 460 590 492 606 q 463 583 463 588 q 467 574 464 578 q 467 572 467 574 q 469 568 468 571 l 472 556 q 479 562 476 558 q 486 568 482 565 q 517 617 511 594 q 524 651 524 640 l 524 660 q 503 694 519 682 q 463 706 483 706 m 471 764 q 542 743 513 764 l 540 744 q 586 660 586 713 q 575 604 586 638 q 556 567 568 585 q 529 532 544 550 q 494 500 513 513 q 457 476 476 488 q 402 463 424 468 q 371 457 381 457 q 301 476 333 457 q 275 503 285 489 q 261 540 265 518 l 261 539 q 259 548 260 544 q 258 554 258 551 l 258 568 q 267 617 258 589 q 286 653 274 636 q 315 690 299 671 q 390 746 342 725 q 471 764 435 764 "},"¯":{"ha":632,"x_min":196,"x_max":915,"o":"m 686 449 l 196 449 l 424 636 l 915 636 l 686 449 "},"°":{"ha":236,"x_min":236,"x_max":424,"o":"m 242 544 q 237 531 238 538 q 236 517 236 524 q 254 472 236 489 q 304 456 272 456 q 373 478 340 456 q 417 532 406 500 q 424 560 424 546 q 405 603 424 588 q 354 619 386 619 q 285 598 318 619 q 242 543 253 576 l 242 544 "},"±":{"ha":636,"x_min":6,"x_max":857,"o":"m 6 0 l 501 0 l 732 217 l 522 217 l 568 342 l 626 342 l 857 558 l 647 558 l 697 693 l 478 693 l 426 558 l 363 558 l 132 342 l 349 342 l 303 217 l 238 217 l 6 0 "},"´":{"ha":222,"x_min":221,"x_max":415,"o":"m 296 594 q 326 622 311 610 q 361 633 342 633 q 400 618 376 633 q 415 579 415 603 q 408 551 415 569 l 410 553 q 398 535 406 543 q 382 518 390 526 l 354 493 q 308 465 338 478 q 258 451 278 451 q 236 458 240 451 l 231 463 l 235 461 q 221 486 221 471 q 224 500 221 493 q 229 514 226 507 l 228 513 q 242 537 233 526 q 258 558 250 547 l 258 557 q 264 563 261 560 q 269 569 267 567 l 296 594 "},"µ":{"ha":1147,"x_min":144,"x_max":1278,"o":"m 893 350 l 894 354 l 889 354 l 893 350 m 1278 369 l 1190 361 q 1206 293 1206 313 q 1205 284 1206 288 q 1201 274 1204 281 l 1190 250 l 1103 267 l 1053 151 l 963 188 l 850 86 l 800 138 l 579 38 l 625 117 l 624 122 l 394 75 l 446 143 l 218 154 l 313 210 l 144 256 l 258 304 l 149 388 l 272 396 l 254 450 l 263 507 l 360 497 l 421 624 q 485 574 471 574 q 496 576 488 574 l 493 574 l 621 682 l 661 629 l 819 701 l 850 678 l 842 646 l 1057 679 l 1017 617 l 1242 617 l 1147 556 l 1269 522 l 1276 472 l 1244 472 l 1207 461 l 1274 413 l 1278 369 "},"¶":{"ha":843,"x_min":136,"x_max":997,"o":"m 701 422 l 626 406 l 621 397 l 571 413 l 542 351 l 501 433 l 485 392 q 440 407 469 407 l 419 407 q 405 401 413 404 q 390 392 397 397 l 404 417 q 333 401 364 410 q 279 379 303 393 l 297 415 l 225 401 l 136 231 l 222 256 l 222 258 q 268 233 232 233 q 274 234 269 233 q 285 236 278 235 q 298 238 288 236 q 311 242 308 240 l 317 260 q 367 243 329 243 l 388 243 l 383 243 q 385 244 385 243 q 389 244 386 244 q 435 267 413 244 l 422 236 l 489 247 l 501 275 q 544 244 515 249 l 540 238 l 604 256 l 667 256 q 699 285 692 282 q 697 263 697 283 l 725 250 l 725 246 l 732 246 l 742 243 l 743 247 l 788 250 l 801 282 q 846 250 821 250 l 867 211 l 939 264 l 883 286 l 878 282 l 881 288 l 925 279 l 997 400 l 928 418 l 919 401 l 874 419 l 842 356 l 804 438 l 786 399 q 753 417 778 417 q 715 406 740 417 q 694 385 704 394 q 675 365 685 375 l 701 422 m 317 294 q 301 293 313 293 l 294 293 q 279 292 290 292 q 281 293 281 292 q 315 336 290 315 q 343 350 333 350 q 344 349 343 350 q 347 347 344 349 q 331 323 338 336 q 317 294 324 310 m 424 338 q 416 324 421 331 q 404 308 411 318 q 394 305 397 307 q 388 301 390 303 q 389 308 388 307 l 389 307 l 392 314 q 424 344 411 336 l 424 343 l 424 342 q 422 336 422 340 l 424 338 m 426 346 q 425 344 425 346 l 424 344 l 425 344 q 426 346 425 346 "},"·":{"ha":236,"x_min":158,"x_max":346,"o":"m 165 338 q 158 307 158 326 q 226 247 158 247 q 294 267 263 247 q 339 319 326 288 q 346 350 346 336 q 326 394 346 376 q 275 411 307 411 q 209 390 240 411 q 165 338 178 369 "},"¸":{"ha":250,"x_min":-219,"x_max":249,"o":"m -219 -129 l 179 -129 l 249 40 l 60 40 l 44 7 l -15 7 l -219 -129 "},"»":{"ha":418,"x_min":96,"x_max":557,"o":"m 96 150 l 301 282 q 311 288 306 285 q 321 296 317 292 l 268 151 l 474 283 q 503 306 486 292 q 525 336 519 321 l 551 407 q 556 416 556 411 q 557 424 557 421 q 551 441 557 432 q 540 457 544 450 l 542 456 l 418 558 l 376 446 q 371 454 372 450 l 247 558 l 192 407 l 242 367 l 156 311 l 96 150 m 354 335 l 376 397 l 413 368 l 350 326 l 354 335 "},"¿":{"ha":899,"x_min":94,"x_max":1064,"o":"m 882 513 q 828 540 847 518 q 810 594 810 563 q 818 635 810 619 l 817 631 q 878 706 833 675 q 971 736 922 736 q 1040 714 1017 736 q 1064 656 1064 692 q 1063 642 1064 651 q 1057 619 1061 632 l 1057 618 q 1004 549 1042 578 q 922 513 967 519 l 1015 513 q 947 434 990 476 q 853 355 903 392 q 753 294 803 318 q 667 269 704 269 l 482 269 q 471 263 482 269 q 450 254 460 257 q 442 249 447 251 l 443 249 q 439 249 440 247 q 438 250 438 250 l 422 232 q 418 218 418 228 l 975 218 q 930 153 954 185 q 881 93 906 121 q 834 42 857 65 q 793 0 811 18 l 194 0 q 118 35 142 0 q 94 119 94 69 q 107 194 94 157 q 143 264 119 232 q 209 337 168 299 q 298 406 250 375 q 395 458 346 438 q 486 479 444 479 l 685 479 q 728 486 713 479 q 750 500 743 493 l 750 513 l 882 513 "},"À":{"ha":1035,"x_min":35,"x_max":1040,"o":"m 761 0 l 1040 0 l 947 601 q 936 644 943 619 q 919 692 929 669 q 894 731 908 715 q 860 747 879 747 l 636 747 q 608 737 625 747 q 576 712 592 726 q 547 682 560 697 q 528 658 533 667 l 75 81 q 62 82 69 90 q 44 42 54 74 l 43 40 l 43 36 q 39 19 40 28 q 35 0 38 11 l 629 0 q 649 15 636 3 q 678 45 663 28 q 710 82 694 63 q 739 118 726 101 l 761 0 m 854 913 l 843 943 l 844 940 q 830 978 840 961 q 793 996 819 996 q 744 982 778 996 q 688 915 703 960 q 683 897 683 907 q 689 871 683 881 l 696 842 q 733 799 707 818 q 783 781 760 781 q 813 789 804 781 l 808 788 l 817 793 l 814 790 q 838 810 829 797 q 854 839 847 824 q 860 868 860 850 q 858 888 860 881 q 856 907 856 894 l 854 913 m 692 461 l 728 218 l 511 218 l 692 461 "},"Á":{"ha":1035,"x_min":35,"x_max":1040,"o":"m 761 0 l 1040 0 l 947 601 q 936 644 943 619 q 919 692 929 669 q 894 731 908 715 q 860 747 879 747 l 636 747 q 608 737 625 747 q 576 712 592 726 q 547 682 560 697 q 528 658 533 667 l 75 81 q 62 82 69 90 q 44 42 54 74 l 43 40 l 43 36 q 39 19 40 28 q 35 0 38 11 l 629 0 q 649 15 636 3 q 678 45 663 28 q 710 82 694 63 q 739 118 726 101 l 761 0 m 731 921 q 724 913 728 917 q 717 903 721 908 q 700 881 707 892 q 686 854 693 869 q 679 825 679 836 q 693 796 679 806 l 690 799 l 697 788 q 724 782 703 782 q 780 797 746 782 q 835 832 814 813 l 867 863 l 871 867 q 885 882 878 874 q 897 904 893 890 l 896 903 q 904 933 904 919 q 886 981 904 961 q 863 992 875 988 q 840 997 851 997 q 800 983 818 997 q 764 951 782 969 l 765 951 l 731 921 m 692 461 l 728 218 l 511 218 l 692 461 "},"Â":{"ha":1035,"x_min":35,"x_max":1040,"o":"m 761 0 l 1040 0 l 947 601 q 936 644 943 619 q 919 691 929 668 q 894 730 908 714 q 860 746 879 746 l 636 746 q 608 735 625 746 q 575 709 592 724 q 544 679 558 694 q 526 656 531 664 l 528 658 l 75 81 q 62 82 69 90 q 44 42 54 74 l 43 40 l 43 36 q 39 19 40 28 q 35 0 38 11 l 629 0 q 649 15 636 3 q 678 45 663 28 q 710 82 694 63 q 739 118 726 101 l 761 0 m 825 790 l 976 790 l 896 951 q 878 974 890 961 q 846 986 865 986 l 763 986 q 744 981 751 986 q 726 968 736 975 l 721 965 l 578 825 q 562 804 564 811 q 567 794 560 797 q 588 790 574 790 q 622 789 603 789 l 664 789 q 692 789 678 789 q 722 790 707 789 l 786 856 l 825 790 m 692 461 l 728 218 l 511 218 l 692 461 "},"Ã":{"ha":1036,"x_min":35,"x_max":1099,"o":"m 764 0 l 1043 0 l 949 601 q 938 644 944 619 q 922 691 932 668 q 897 730 911 714 q 863 746 882 746 l 638 746 q 610 735 626 746 q 576 709 593 724 q 544 679 558 694 q 526 656 531 664 l 528 658 l 75 81 q 62 82 69 90 q 44 42 54 74 l 43 40 l 43 36 q 39 19 40 28 q 35 0 38 11 l 631 0 q 651 15 638 3 q 680 45 664 28 q 712 82 696 63 q 740 118 728 101 l 764 0 m 726 986 q 707 981 715 986 q 688 968 699 975 l 682 965 l 504 790 l 685 790 l 749 856 l 785 790 l 907 790 q 930 798 918 790 q 949 810 942 806 q 1035 894 1004 864 q 1079 942 1065 925 q 1096 967 1093 958 q 1099 986 1099 975 l 949 986 l 883 921 l 847 986 l 726 986 m 693 461 l 729 218 l 513 218 l 693 461 "},"Ä":{"ha":1035,"x_min":35,"x_max":1040,"o":"m 761 0 l 1040 0 l 947 601 q 936 644 943 619 q 919 691 929 668 q 894 730 908 714 q 860 746 879 746 l 636 746 q 608 735 625 746 q 575 709 592 724 q 544 679 558 694 q 526 656 531 664 l 528 658 l 75 81 q 62 82 69 90 q 44 42 54 74 l 43 40 l 43 36 q 39 19 40 28 q 35 0 38 11 l 629 0 q 649 15 636 3 q 678 45 663 28 q 710 82 694 63 q 739 118 726 101 l 761 0 m 1022 882 q 1028 917 1028 897 q 1006 969 1028 949 q 947 989 983 989 q 867 963 906 989 q 815 897 829 936 l 815 899 q 810 880 811 889 q 808 864 808 871 q 831 812 808 832 q 890 792 853 792 q 969 818 932 792 q 1022 883 1007 844 l 1022 882 m 574 899 q 568 880 569 889 q 567 864 567 871 q 588 812 567 832 q 647 792 610 792 q 727 818 689 792 q 781 883 765 844 q 788 915 788 901 q 765 968 788 947 q 704 989 743 989 q 626 963 663 989 q 574 897 589 936 l 574 899 m 692 461 l 728 218 l 511 218 l 692 461 "},"Å":{"ha":1035,"x_min":35,"x_max":1040,"o":"m 761 0 l 1040 0 l 947 601 q 936 644 943 619 q 919 691 929 668 q 894 730 908 714 q 860 746 879 746 l 636 746 q 608 735 625 746 q 575 709 592 724 q 544 679 558 694 q 526 656 531 664 l 528 658 l 75 81 q 62 82 69 90 q 44 42 54 74 l 43 40 l 43 36 q 39 19 40 28 q 35 0 38 11 l 629 0 q 649 15 636 3 q 678 45 663 28 q 710 82 694 63 q 739 118 726 101 l 761 0 m 696 899 q 690 864 690 883 q 712 812 690 832 q 769 792 733 792 q 851 818 813 792 q 903 883 889 844 q 910 915 910 901 q 888 968 910 947 q 828 989 865 989 q 748 963 785 989 q 696 897 711 936 l 696 899 m 692 461 l 728 218 l 511 218 l 692 461 "},"Æ":{"ha":1607,"x_min":36,"x_max":1864,"o":"m 1044 736 l 972 544 l 965 586 l 965 585 q 956 629 964 603 q 936 679 949 656 q 908 719 924 703 q 876 736 893 736 l 647 736 q 619 726 636 736 q 586 701 603 715 q 556 673 569 688 q 536 650 542 658 l 76 79 q 63 81 71 89 q 44 40 54 72 l 44 39 l 44 36 q 40 19 42 28 q 36 0 39 11 l 642 0 q 662 15 649 3 q 690 44 675 28 q 722 81 706 61 q 753 117 739 100 l 775 0 l 1479 0 q 1499 14 1481 0 q 1540 49 1517 28 q 1586 92 1563 69 q 1622 131 1610 114 l 1621 128 q 1630 142 1622 129 q 1647 169 1638 154 q 1663 197 1656 183 q 1674 217 1671 211 l 1150 217 l 1165 257 l 1431 257 l 1668 474 l 1294 474 l 1222 404 l 1264 519 l 1669 519 q 1710 545 1682 519 q 1769 606 1739 571 q 1826 678 1799 642 q 1864 736 1853 714 l 1044 736 m 704 454 l 740 215 l 521 215 l 704 454 "},"Ç":{"ha":868,"x_min":118,"x_max":1140,"o":"m 118 -154 l 333 8 l 396 8 l 407 35 q 317 77 358 51 q 247 140 276 103 q 200 228 217 178 q 183 343 183 278 q 213 482 183 411 q 293 611 243 553 q 410 706 343 669 q 550 743 476 743 l 1140 743 q 1042 622 1089 676 q 943 524 994 568 l 590 524 q 556 513 572 524 q 524 487 539 503 q 498 450 510 471 q 479 408 486 429 l 479 410 q 474 383 476 394 q 471 361 471 371 q 482 314 471 339 q 511 268 493 289 q 550 233 529 247 q 590 219 571 219 l 947 219 q 862 103 908 161 q 757 0 815 44 l 597 0 l 594 0 l 539 -154 l 118 -154 "},"È":{"ha":863,"x_min":43,"x_max":1124,"o":"m 43 0 l 743 0 q 763 14 744 0 q 803 49 781 28 q 849 92 826 69 q 885 132 872 115 l 883 129 q 892 143 885 131 q 909 171 900 156 q 926 200 918 186 q 936 219 933 214 l 419 219 l 435 260 l 696 260 l 929 481 l 561 481 l 490 411 l 532 526 l 931 526 q 971 553 943 526 q 1028 615 999 579 q 1085 688 1058 650 q 1124 747 1113 725 l 315 747 l 43 0 m 788 950 l 788 949 q 772 985 781 968 q 738 1003 763 1003 q 689 989 722 1003 q 632 925 646 963 q 628 913 629 918 q 628 903 628 907 q 632 875 628 888 l 632 878 l 644 836 q 678 803 653 818 q 728 788 703 788 l 732 788 q 740 789 738 788 q 744 790 743 789 q 746 790 744 790 l 761 800 l 758 797 q 783 818 774 804 q 797 847 792 832 q 803 878 803 858 q 802 890 803 883 q 801 903 801 897 q 800 917 800 907 l 788 950 "},"É":{"ha":863,"x_min":43,"x_max":1124,"o":"m 43 0 l 743 0 q 763 14 744 0 q 803 49 781 28 q 849 92 826 69 q 885 132 872 115 l 883 129 q 892 143 885 131 q 909 171 900 156 q 926 200 918 186 q 936 219 933 214 l 419 219 l 435 260 l 696 260 l 929 481 l 561 481 l 490 411 l 532 526 l 931 526 q 971 553 943 526 q 1028 615 999 579 q 1085 688 1058 650 q 1124 747 1113 725 l 315 747 l 43 0 m 679 929 q 673 922 676 926 q 668 915 669 918 l 668 917 q 647 892 657 904 q 632 863 638 879 l 632 864 q 625 832 625 846 q 628 815 625 822 q 636 803 632 808 l 635 806 l 643 794 q 668 789 649 789 q 694 793 679 789 q 724 805 708 797 q 755 822 740 813 q 779 839 769 831 l 811 869 l 817 874 q 831 889 824 881 q 844 911 839 897 l 843 910 q 850 940 850 931 q 832 988 850 969 q 809 999 821 994 q 786 1004 797 1004 q 746 990 764 1004 q 710 958 728 976 l 711 958 l 679 929 "},"Ê":{"ha":863,"x_min":43,"x_max":1124,"o":"m 43 0 l 743 0 q 763 14 744 0 q 803 49 781 28 q 849 92 826 69 q 885 132 872 115 l 883 129 q 892 143 885 131 q 909 171 900 156 q 926 200 918 186 q 936 219 933 214 l 419 219 l 435 260 l 696 260 l 929 479 l 561 479 l 490 411 l 532 526 l 931 526 q 971 553 943 526 q 1028 615 999 579 q 1085 687 1058 650 q 1124 746 1113 724 l 315 746 l 43 0 m 771 794 l 924 794 l 844 956 q 826 978 838 965 q 796 990 815 990 l 713 990 q 693 984 704 990 q 671 971 682 978 q 671 972 672 972 q 668 969 669 971 l 490 794 l 669 794 l 736 860 l 771 794 "},"Ë":{"ha":863,"x_min":43,"x_max":1124,"o":"m 43 0 l 743 0 q 763 14 744 0 q 803 49 781 28 q 849 92 826 69 q 885 132 872 115 l 883 129 q 892 143 885 131 q 909 171 900 156 q 926 200 918 186 q 936 219 933 214 l 419 219 l 435 260 l 696 260 l 929 479 l 561 479 l 490 411 l 532 526 l 931 526 q 971 553 943 526 q 1028 615 999 579 q 1085 687 1058 650 q 1124 746 1113 724 l 315 746 l 43 0 m 986 882 q 992 901 990 892 q 993 917 993 910 q 971 969 993 949 q 913 989 949 989 q 832 963 869 989 q 779 897 794 936 l 779 899 q 774 880 775 889 q 774 864 774 871 q 796 812 774 832 q 854 792 818 792 q 935 818 897 792 q 986 883 972 844 l 986 882 m 538 899 q 532 880 533 889 q 531 864 531 871 q 552 812 531 832 q 611 792 574 792 q 692 818 654 792 q 744 883 731 844 q 751 915 751 901 q 729 968 751 947 q 668 989 707 989 q 590 963 626 989 q 538 897 553 936 l 538 899 "},"Ì":{"ha":347,"x_min":42,"x_max":593,"o":"m 306 747 l 42 0 l 329 0 l 593 747 l 306 747 m 557 914 l 546 944 l 547 942 q 533 980 543 963 q 497 997 522 997 q 450 983 483 997 q 396 917 410 960 q 393 899 393 908 q 397 869 393 882 l 397 872 l 407 842 q 440 800 414 818 q 489 782 465 782 q 517 790 508 782 l 511 788 l 521 793 l 519 792 q 543 813 535 799 q 557 842 551 826 q 561 872 561 860 q 559 893 561 885 q 557 908 557 901 l 557 914 "},"Í":{"ha":349,"x_min":42,"x_max":604,"o":"m 331 0 l 594 747 l 306 747 l 42 0 l 331 0 m 439 925 q 433 918 436 922 q 428 911 429 914 l 428 913 q 408 888 417 900 q 393 860 399 875 q 386 828 386 842 q 390 812 386 819 q 397 799 393 804 l 396 801 l 404 790 q 428 785 410 785 q 452 789 438 785 q 482 801 467 793 q 512 817 497 808 q 536 835 526 826 l 567 865 l 572 869 q 586 885 579 876 q 597 907 593 893 l 596 906 q 604 936 604 922 q 586 983 604 964 q 542 1000 563 1000 q 503 986 521 1000 q 468 954 485 972 l 469 954 l 439 925 "},"Î":{"ha":350,"x_min":43,"x_max":681,"o":"m 333 0 l 599 746 l 308 746 l 43 0 l 333 0 m 531 793 l 681 793 l 601 954 q 585 976 596 964 q 554 989 574 989 l 474 989 q 447 980 461 989 q 426 964 433 971 l 257 793 l 433 793 l 496 858 l 531 793 "},"Ï":{"ha":353,"x_min":43,"x_max":736,"o":"m 335 0 l 601 746 l 310 746 l 43 0 l 335 0 m 731 882 q 736 917 736 897 q 715 969 736 949 q 657 989 693 989 q 578 963 615 989 q 528 897 542 936 l 528 899 q 522 880 524 889 q 521 864 521 871 q 542 812 521 832 q 600 792 564 792 q 678 818 642 792 q 731 883 715 844 l 731 882 m 290 899 q 285 880 286 889 q 283 864 283 871 q 305 812 283 832 q 363 792 326 792 q 403 799 383 792 q 441 818 424 806 q 472 847 458 831 q 493 883 486 864 q 500 915 500 901 q 478 968 500 947 q 418 989 456 989 q 341 963 378 989 q 290 897 304 936 l 290 899 "},"Ð":{"ha":1063,"x_min":103,"x_max":1232,"o":"m 1143 328 q 1210 447 1188 386 q 1232 561 1232 507 q 1190 686 1232 636 q 1058 736 1147 736 l 464 736 l 364 474 l 336 474 l 103 257 l 285 257 l 190 0 l 551 0 q 726 18 647 0 q 876 76 806 36 q 1011 178 946 115 q 1143 328 1076 240 m 618 257 l 851 474 l 667 474 l 685 519 l 888 519 q 908 510 903 519 q 913 486 913 500 q 899 418 913 454 l 899 419 q 885 396 892 406 q 872 379 878 386 l 874 381 q 865 368 869 376 q 812 318 847 344 q 735 269 776 292 q 652 231 693 246 q 583 217 611 217 l 572 217 l 586 257 l 618 257 "},"Ñ":{"ha":903,"x_min":43,"x_max":1158,"o":"m 342 0 l 467 342 l 531 0 l 885 0 l 1158 746 l 863 746 l 736 404 l 671 746 l 317 746 l 43 0 l 342 0 m 672 986 q 653 981 661 986 q 633 968 644 975 l 628 965 l 450 790 l 631 790 l 694 856 l 731 790 l 853 790 q 876 798 865 790 q 894 810 888 806 q 982 894 951 864 q 1027 942 1013 925 q 1044 967 1042 958 q 1046 986 1046 975 l 894 986 l 831 921 l 794 986 l 672 986 "},"Ò":{"ha":988,"x_min":163,"x_max":1121,"o":"m 1115 400 q 1119 438 1118 419 q 1121 475 1121 456 q 1096 599 1121 547 q 1025 684 1071 651 q 915 732 979 717 q 775 747 851 747 l 600 747 q 453 710 526 747 q 320 614 381 672 q 219 485 260 556 q 168 347 178 414 q 164 310 165 328 q 163 275 163 292 q 190 140 163 193 q 265 56 217 88 q 381 13 314 25 q 525 0 447 0 l 658 0 q 819 37 742 0 q 960 132 897 74 q 1063 261 1022 190 q 1115 400 1104 332 m 460 361 q 466 382 461 369 q 476 410 471 394 l 476 408 q 506 450 488 429 q 545 488 524 471 q 589 516 567 506 q 631 526 611 526 l 738 526 q 806 499 788 526 q 825 438 825 472 q 824 418 825 426 q 824 400 824 410 q 822 389 822 394 q 819 378 821 383 l 814 364 q 800 335 811 351 q 768 294 789 314 q 724 257 747 274 q 679 230 701 240 q 643 219 657 219 l 556 219 q 518 231 536 219 q 487 261 500 243 q 466 302 474 279 q 458 346 458 325 q 460 357 458 353 l 460 361 m 879 947 l 881 944 q 865 983 876 965 q 828 1000 854 1000 q 781 986 814 1000 q 724 919 739 964 q 721 901 721 911 q 722 888 721 894 q 725 875 722 881 l 732 846 q 769 803 743 822 q 819 785 796 785 q 849 793 840 785 l 843 790 l 853 796 q 874 815 865 803 q 890 843 883 828 q 894 872 894 857 q 894 886 894 881 q 892 897 893 892 l 892 914 l 879 947 "},"Ó":{"ha":988,"x_min":163,"x_max":1121,"o":"m 1115 400 q 1119 438 1118 419 q 1121 475 1121 456 q 1096 599 1121 547 q 1025 684 1071 651 q 915 732 979 717 q 775 747 851 747 l 600 747 q 453 710 526 747 q 320 614 381 672 q 219 485 260 556 q 168 347 178 414 q 164 310 165 328 q 163 275 163 292 q 190 140 163 193 q 265 56 217 88 q 381 13 314 25 q 525 0 447 0 l 658 0 q 819 37 742 0 q 960 132 897 74 q 1063 261 1022 190 q 1115 400 1104 332 m 460 361 q 466 382 461 369 q 476 410 471 394 l 476 408 q 506 450 488 429 q 545 488 524 471 q 589 516 567 506 q 631 526 611 526 l 738 526 q 806 499 788 526 q 825 438 825 472 q 824 418 825 426 q 824 400 824 410 q 822 389 822 394 q 819 378 821 383 l 814 364 q 800 335 811 351 q 768 294 789 314 q 724 257 747 274 q 679 230 701 240 q 643 219 657 219 l 556 219 q 518 231 536 219 q 487 261 500 243 q 466 302 474 279 q 458 346 458 325 q 460 357 458 353 l 460 361 m 763 925 q 756 918 760 922 q 750 911 753 914 l 750 913 q 730 888 739 900 q 714 858 721 875 l 714 860 q 707 828 707 842 q 719 799 707 811 l 718 801 l 726 790 q 750 785 732 785 q 776 789 761 785 q 806 801 790 793 q 837 817 822 808 q 861 835 851 826 l 893 865 l 899 869 q 913 885 906 876 q 925 907 921 893 l 924 906 q 932 936 932 922 q 914 983 932 964 q 891 995 903 990 q 868 1000 879 1000 q 828 986 846 1000 q 793 954 810 972 l 794 954 l 763 925 "},"Ô":{"ha":988,"x_min":163,"x_max":1121,"o":"m 1115 400 q 1119 438 1118 419 q 1121 475 1121 456 q 1096 599 1121 547 q 1025 683 1071 651 q 915 731 979 715 q 775 746 851 746 l 600 746 q 453 709 526 746 q 320 614 381 672 q 219 485 260 556 q 168 346 178 414 q 164 309 165 326 q 163 275 163 292 q 190 140 163 193 q 265 56 217 88 q 381 13 314 25 q 525 0 447 0 l 658 0 q 819 37 742 0 q 960 132 897 74 q 1063 261 1022 190 q 1115 400 1104 332 m 460 361 q 466 382 461 369 q 476 410 471 394 l 476 408 q 506 450 488 429 q 545 488 524 471 q 589 516 567 506 q 631 526 611 526 l 738 526 q 806 499 788 526 q 825 438 825 471 q 824 417 825 426 q 824 400 824 408 q 822 389 822 394 q 819 378 821 383 l 814 364 q 800 335 811 351 q 768 293 789 314 q 724 256 747 272 q 679 230 701 240 q 643 219 657 219 l 556 219 q 518 231 536 219 q 487 261 500 243 q 466 302 474 279 q 458 346 458 325 q 460 357 458 353 l 460 361 m 836 792 l 989 792 l 910 953 q 892 975 903 963 q 861 988 882 988 l 779 988 q 759 981 769 988 q 738 968 749 975 q 733 967 738 968 l 557 792 l 736 792 l 801 857 l 836 792 "},"Õ":{"ha":988,"x_min":163,"x_max":1121,"o":"m 1115 400 q 1119 438 1118 419 q 1121 475 1121 456 q 1096 599 1121 547 q 1025 683 1071 651 q 915 731 979 715 q 775 746 851 746 l 600 746 q 453 709 526 746 q 320 614 381 672 q 219 485 260 556 q 168 346 178 414 q 164 309 165 326 q 163 275 163 292 q 190 140 163 193 q 265 56 217 88 q 381 13 314 25 q 525 0 447 0 l 658 0 q 819 37 742 0 q 960 132 897 74 q 1063 261 1022 190 q 1115 400 1104 332 m 460 361 q 466 382 461 369 q 476 410 471 394 l 476 408 q 506 450 488 429 q 545 488 524 471 q 589 516 567 506 q 631 526 611 526 l 738 526 q 806 499 788 526 q 825 438 825 471 q 824 417 825 426 q 824 400 824 408 q 822 389 822 394 q 819 378 821 383 l 814 364 q 800 335 813 354 q 768 293 789 314 q 724 256 747 272 q 679 230 701 240 q 643 219 657 219 l 556 219 q 518 231 536 219 q 487 261 500 243 q 466 301 474 279 q 458 344 458 324 q 460 357 458 353 l 460 361 m 717 986 q 697 981 706 986 q 678 968 689 975 l 672 965 l 496 790 l 675 790 l 739 856 l 775 790 l 896 790 q 919 798 908 790 q 938 810 931 806 q 1024 894 993 864 q 1068 942 1054 925 q 1085 967 1082 958 q 1088 986 1088 975 l 938 986 l 874 921 l 838 986 l 717 986 "},"Ö":{"ha":988,"x_min":163,"x_max":1121,"o":"m 1115 400 q 1119 438 1118 419 q 1121 475 1121 456 q 1096 599 1121 547 q 1025 683 1071 651 q 915 731 979 715 q 775 746 851 746 l 600 746 q 453 709 526 746 q 320 614 381 672 q 219 485 260 556 q 168 346 178 414 q 164 309 165 326 q 163 275 163 292 q 190 140 163 193 q 265 56 217 88 q 381 13 314 25 q 525 0 447 0 l 658 0 q 819 37 742 0 q 960 132 897 74 q 1063 261 1022 190 q 1115 400 1104 332 m 460 361 q 466 382 461 369 q 476 410 471 394 l 476 408 q 506 450 488 429 q 545 488 524 471 q 589 516 567 506 q 631 526 611 526 l 738 526 q 806 499 788 526 q 825 438 825 471 q 824 418 825 426 q 824 400 824 410 q 822 389 822 394 q 819 378 821 383 l 814 364 q 800 335 811 351 q 768 294 789 314 q 724 257 747 274 q 679 230 701 240 q 643 219 657 219 l 556 219 q 518 231 536 219 q 487 261 500 243 q 466 302 474 279 q 458 346 458 325 q 460 357 458 353 l 460 361 m 1044 882 q 1050 901 1049 892 q 1051 917 1051 910 q 1029 969 1051 949 q 969 989 1007 989 q 890 963 928 989 q 838 897 853 936 l 838 899 q 832 880 833 889 q 831 864 831 871 q 853 812 831 832 q 913 792 875 792 q 992 818 954 792 q 1044 883 1029 844 l 1044 882 m 597 899 q 592 880 593 889 q 590 864 590 871 q 612 812 590 832 q 669 792 633 792 q 751 818 713 792 q 803 883 789 844 q 810 915 810 901 q 788 968 810 947 q 728 989 765 989 q 648 963 685 989 q 597 897 611 936 l 597 899 "},"×":{"ha":549,"x_min":61,"x_max":774,"o":"m 378 228 l 283 157 l 61 157 l 311 351 l 217 536 l 421 536 l 458 465 l 550 536 l 774 536 l 522 342 l 621 157 l 415 157 l 378 228 "},"Ø":{"ha":988,"x_min":163,"x_max":1121,"o":"m 1115 394 q 1119 431 1118 414 q 1121 468 1121 449 q 1096 591 1121 540 q 1025 674 1071 642 q 915 721 979 706 q 775 736 851 736 l 600 736 q 453 699 526 736 q 320 606 381 663 q 219 478 260 549 q 168 342 178 408 q 164 305 165 322 q 163 271 163 288 q 190 140 163 192 q 265 56 217 88 q 381 13 314 25 q 525 0 447 0 l 658 0 q 819 37 742 0 q 960 131 897 74 q 1063 258 1022 188 q 1115 394 1104 328 m 819 372 l 814 358 q 800 331 813 350 q 768 290 789 310 q 724 253 747 269 q 679 227 701 238 q 643 217 657 217 l 556 217 l 546 217 l 824 411 l 824 394 q 822 384 822 389 q 819 372 821 379 m 460 356 q 466 376 461 364 q 476 404 471 389 l 476 403 q 506 444 488 424 q 545 482 524 465 q 589 509 567 499 q 631 519 611 519 l 726 519 l 458 332 l 458 338 q 460 354 458 350 l 460 356 "},"Ù":{"ha":938,"x_min":158,"x_max":1193,"o":"m 204 436 q 192 386 197 408 q 165 283 174 329 q 160 247 163 264 q 158 214 158 229 q 244 49 158 97 q 503 0 329 0 l 658 0 q 803 26 743 0 q 910 101 864 51 q 992 223 956 150 q 1063 390 1028 296 l 1193 747 l 897 747 l 749 338 l 750 340 q 727 302 742 324 q 693 263 713 281 q 649 232 674 244 q 596 219 625 219 l 531 219 q 485 241 499 219 q 472 300 472 263 l 472 317 q 475 338 472 324 q 476 345 475 340 q 481 364 476 350 q 492 403 485 378 q 515 472 500 428 q 553 584 531 517 q 610 747 576 651 l 315 747 l 204 436 m 857 946 l 857 944 q 842 981 851 964 q 807 999 832 999 q 758 985 796 999 q 700 918 717 961 q 697 900 697 910 q 703 871 697 881 l 703 874 l 715 832 q 747 799 722 814 q 797 783 772 783 l 801 783 q 811 785 807 783 q 815 785 814 785 q 817 786 815 786 l 831 796 l 828 793 q 853 814 844 800 q 867 843 861 828 q 872 874 872 854 q 872 886 872 879 q 871 899 871 893 q 869 913 869 903 l 857 946 "},"Ú":{"ha":938,"x_min":158,"x_max":1193,"o":"m 204 436 q 192 386 197 408 q 165 283 174 329 q 160 247 163 264 q 158 214 158 229 q 244 49 158 97 q 503 0 329 0 l 658 0 q 803 26 743 0 q 910 101 864 51 q 992 223 956 150 q 1063 390 1028 296 l 1193 747 l 897 747 l 749 338 l 750 340 q 727 302 742 324 q 693 263 713 281 q 649 232 674 244 q 596 219 625 219 l 531 219 q 485 241 499 219 q 472 300 472 263 l 472 317 q 475 338 472 324 q 476 345 475 340 q 481 364 476 350 q 492 403 485 378 q 515 472 500 428 q 553 584 531 517 q 610 747 576 651 l 315 747 l 204 436 m 746 924 q 740 917 743 921 q 735 911 738 914 q 714 888 724 900 q 697 856 704 875 q 690 826 690 838 q 706 796 690 807 l 703 797 l 708 792 l 707 793 q 735 783 717 783 q 792 799 757 783 q 847 833 826 815 l 879 864 l 883 868 q 897 883 890 875 q 910 906 904 892 l 910 904 q 917 936 917 921 q 899 982 917 964 q 853 999 875 999 q 813 985 831 999 q 778 953 794 971 l 779 953 l 746 924 "},"Û":{"ha":938,"x_min":158,"x_max":1193,"o":"m 204 436 q 192 386 197 408 q 176 333 182 358 q 165 283 169 307 q 160 247 163 264 q 158 214 158 229 q 244 49 158 97 q 503 0 329 0 l 658 0 q 803 26 743 0 q 910 101 864 51 q 992 223 956 150 q 1063 390 1028 296 l 1193 746 l 897 746 l 749 338 l 750 340 q 727 302 742 324 q 693 263 713 281 q 649 232 674 244 q 596 219 625 219 l 531 219 q 485 241 499 219 q 472 300 472 263 l 472 317 q 475 338 472 324 q 476 345 475 340 q 481 363 476 350 q 492 402 485 376 q 515 472 500 428 q 553 583 531 517 q 610 746 576 650 l 315 746 l 204 436 m 818 792 l 971 792 l 890 953 q 873 975 885 963 q 842 988 861 988 l 758 988 q 740 982 749 988 q 719 969 731 976 l 715 967 l 538 792 l 717 792 l 782 857 l 818 792 "},"Ü":{"ha":938,"x_min":158,"x_max":1193,"o":"m 204 436 q 192 386 197 408 q 176 333 182 358 q 165 283 169 307 q 160 247 163 264 q 158 214 158 229 q 244 49 158 97 q 503 0 329 0 l 658 0 q 803 26 743 0 q 910 101 864 51 q 992 223 956 150 q 1063 390 1028 296 l 1193 746 l 897 746 l 749 338 l 750 340 q 727 302 742 324 q 693 263 713 281 q 649 232 674 244 q 596 219 625 219 l 531 219 q 485 241 499 219 q 472 300 472 263 l 472 317 q 475 338 472 324 q 476 345 475 340 q 481 363 476 350 q 492 402 485 376 q 515 472 500 428 q 553 583 531 517 q 610 746 576 650 l 315 746 l 204 436 m 579 897 q 574 878 575 888 q 572 863 572 869 q 594 810 572 831 q 653 790 617 790 q 733 817 696 790 q 785 882 771 843 l 785 881 q 790 899 789 890 q 792 915 792 908 q 769 967 792 947 q 711 988 747 988 q 631 961 668 988 q 579 896 593 935 l 579 897 m 1026 881 q 1032 899 1031 890 q 1033 915 1033 908 q 1012 967 1033 947 q 954 988 990 988 q 873 960 911 988 q 819 894 835 933 q 814 864 814 878 q 836 811 814 832 q 896 790 858 790 q 976 817 939 790 q 1026 882 1013 843 l 1026 881 "},"Ý":{"ha":897,"x_min":283,"x_max":1186,"o":"m 608 0 l 733 344 l 1186 747 l 844 747 l 671 593 l 610 747 l 283 747 l 442 354 l 314 0 l 608 0 m 726 924 q 717 911 725 922 q 696 888 706 900 q 679 856 686 875 q 672 826 672 838 q 688 796 672 807 l 685 797 l 689 792 l 689 793 q 717 783 694 783 q 742 788 728 783 q 773 799 757 792 q 803 816 789 807 q 828 833 818 825 l 860 864 l 863 868 q 877 883 869 875 q 889 906 885 892 l 889 904 q 896 936 896 921 q 879 982 896 963 q 856 994 868 989 q 833 999 844 999 q 793 985 811 999 q 758 953 775 971 l 760 953 l 726 924 "},"Þ":{"ha":935,"x_min":43,"x_max":1047,"o":"m 43 0 l 340 0 l 385 121 l 746 121 q 847 141 793 121 q 944 197 900 161 q 1018 283 989 233 q 1047 392 1047 332 q 1036 458 1046 421 q 1008 527 1026 494 q 960 582 989 560 q 893 604 932 604 l 564 604 l 613 736 l 315 736 l 43 0 m 743 386 l 750 372 l 750 371 l 750 372 l 750 371 q 742 349 746 360 q 738 338 738 338 l 518 338 l 440 271 l 483 386 l 743 386 "},"ß":{"ha":925,"x_min":-25,"x_max":1075,"o":"m 683 249 q 685 251 686 251 l 683 249 m 533 524 l 369 76 q 424 151 397 115 q 483 221 450 186 l 644 221 q 657 228 644 221 q 678 242 669 235 q 681 246 681 244 l 683 253 q 684 253 683 253 q 685 256 685 254 l 457 256 l 710 475 l 764 475 q 769 485 764 475 q 776 506 774 496 l 776 510 l 778 507 q 772 517 775 511 q 769 524 769 524 l 533 524 m -25 -187 l 249 560 q 313 649 275 603 q 396 744 351 696 l 919 744 q 988 722 958 744 q 1037 665 1018 699 q 1065 595 1056 632 q 1075 529 1075 558 l 1075 526 q 1047 428 1075 476 q 981 354 1018 381 q 997 331 989 344 q 1006 294 1004 318 q 997 245 1006 271 q 982 201 989 219 l 978 186 q 935 101 956 136 q 881 44 914 67 q 796 10 847 21 q 661 0 744 0 l 342 0 l 274 -187 l -25 -187 "},"à":{"ha":1035,"x_min":35,"x_max":1040,"o":"m 761 0 l 1040 0 l 947 601 q 936 644 943 619 q 919 692 929 669 q 894 731 908 715 q 860 747 879 747 l 636 747 q 608 737 625 747 q 576 712 592 726 q 547 682 560 697 q 528 658 533 667 l 75 81 q 62 82 69 90 q 44 42 54 74 l 43 40 l 43 36 q 39 19 40 28 q 35 0 38 11 l 629 0 q 649 15 636 3 q 678 45 663 28 q 710 82 694 63 q 739 118 726 101 l 761 0 m 854 913 l 843 943 l 844 940 q 830 978 840 961 q 793 996 819 996 q 744 982 778 996 q 688 915 703 960 q 683 897 683 907 q 689 871 683 881 l 696 842 q 733 799 707 818 q 783 781 760 781 q 813 789 804 781 l 808 788 l 817 793 l 814 790 q 838 810 829 797 q 854 839 847 824 q 860 868 860 850 q 858 888 860 881 q 856 907 856 894 l 854 913 m 692 461 l 728 218 l 511 218 l 692 461 "},"á":{"ha":1035,"x_min":35,"x_max":1040,"o":"m 761 0 l 1040 0 l 947 601 q 936 644 943 619 q 919 692 929 669 q 894 731 908 715 q 860 747 879 747 l 636 747 q 608 737 625 747 q 576 712 592 726 q 547 682 560 697 q 528 658 533 667 l 75 81 q 62 82 69 90 q 44 42 54 74 l 43 40 l 43 36 q 39 19 40 28 q 35 0 38 11 l 629 0 q 649 15 636 3 q 678 45 663 28 q 710 82 694 63 q 739 118 726 101 l 761 0 m 731 921 q 724 913 728 917 q 717 903 721 908 q 700 881 707 892 q 686 854 693 869 q 679 825 679 836 q 693 796 679 806 l 690 799 l 697 788 q 724 782 703 782 q 780 797 746 782 q 835 832 814 813 l 867 863 l 871 867 q 885 882 878 874 q 897 904 893 890 l 896 903 q 904 933 904 919 q 886 981 904 961 q 863 992 875 988 q 840 997 851 997 q 800 983 818 997 q 764 951 782 969 l 765 951 l 731 921 m 692 461 l 728 218 l 511 218 l 692 461 "},"â":{"ha":1035,"x_min":35,"x_max":1040,"o":"m 761 0 l 1040 0 l 947 601 q 936 644 943 619 q 919 691 929 668 q 894 730 908 714 q 860 746 879 746 l 636 746 q 608 735 625 746 q 575 709 592 724 q 544 679 558 694 q 526 656 531 664 l 528 658 l 75 81 q 62 82 69 90 q 44 42 54 74 l 43 40 l 43 36 q 39 19 40 28 q 35 0 38 11 l 629 0 q 649 15 636 3 q 678 45 663 28 q 710 82 694 63 q 739 118 726 101 l 761 0 m 825 790 l 976 790 l 896 951 q 878 974 890 961 q 846 986 865 986 l 763 986 q 744 981 751 986 q 726 968 736 975 l 721 965 l 578 825 q 562 804 564 811 q 567 794 560 797 q 588 790 574 790 q 622 789 603 789 l 664 789 q 692 789 678 789 q 722 790 707 789 l 786 856 l 825 790 m 692 461 l 728 218 l 511 218 l 692 461 "},"ã":{"ha":1036,"x_min":35,"x_max":1099,"o":"m 764 0 l 1043 0 l 949 601 q 938 644 944 619 q 922 691 932 668 q 897 730 911 714 q 863 746 882 746 l 638 746 q 610 735 626 746 q 576 709 593 724 q 544 679 558 694 q 526 656 531 664 l 528 658 l 75 81 q 62 82 69 90 q 44 42 54 74 l 43 40 l 43 36 q 39 19 40 28 q 35 0 38 11 l 631 0 q 651 15 638 3 q 680 45 664 28 q 712 82 696 63 q 740 118 728 101 l 764 0 m 726 986 q 707 981 715 986 q 688 968 699 975 l 682 965 l 504 790 l 685 790 l 749 856 l 785 790 l 907 790 q 930 798 918 790 q 949 810 942 806 q 1035 894 1004 864 q 1079 942 1065 925 q 1096 967 1093 958 q 1099 986 1099 975 l 949 986 l 883 921 l 847 986 l 726 986 m 693 461 l 729 218 l 513 218 l 693 461 "},"ä":{"ha":1035,"x_min":35,"x_max":1040,"o":"m 761 0 l 1040 0 l 947 601 q 936 644 943 619 q 919 691 929 668 q 894 730 908 714 q 860 746 879 746 l 636 746 q 608 735 625 746 q 575 709 592 724 q 544 679 558 694 q 526 656 531 664 l 528 658 l 75 81 q 62 82 69 90 q 44 42 54 74 l 43 40 l 43 36 q 39 19 40 28 q 35 0 38 11 l 629 0 q 649 15 636 3 q 678 45 663 28 q 710 82 694 63 q 739 118 726 101 l 761 0 m 1022 882 q 1028 917 1028 897 q 1006 969 1028 949 q 947 989 983 989 q 867 963 906 989 q 815 897 829 936 l 815 899 q 810 880 811 889 q 808 864 808 871 q 831 812 808 832 q 890 792 853 792 q 969 818 932 792 q 1022 883 1007 844 l 1022 882 m 574 899 q 568 880 569 889 q 567 864 567 871 q 588 812 567 832 q 647 792 610 792 q 727 818 689 792 q 781 883 765 844 q 788 915 788 901 q 765 968 788 947 q 704 989 743 989 q 626 963 663 989 q 574 897 589 936 l 574 899 m 692 461 l 728 218 l 511 218 l 692 461 "},"å":{"ha":1035,"x_min":35,"x_max":1040,"o":"m 761 0 l 1040 0 l 947 601 q 936 644 943 619 q 919 691 929 668 q 894 730 908 714 q 860 746 879 746 l 636 746 q 608 735 625 746 q 575 709 592 724 q 544 679 558 694 q 526 656 531 664 l 528 658 l 75 81 q 62 82 69 90 q 44 42 54 74 l 43 40 l 43 36 q 39 19 40 28 q 35 0 38 11 l 629 0 q 649 15 636 3 q 678 45 663 28 q 710 82 694 63 q 739 118 726 101 l 761 0 m 696 899 q 690 864 690 883 q 712 812 690 832 q 769 792 733 792 q 851 818 813 792 q 903 883 889 844 q 910 915 910 901 q 888 968 910 947 q 828 989 865 989 q 748 963 785 989 q 696 897 711 936 l 696 899 m 692 461 l 728 218 l 511 218 l 692 461 "},"æ":{"ha":1607,"x_min":36,"x_max":1864,"o":"m 1044 736 l 972 544 l 965 586 l 965 585 q 956 629 964 603 q 936 679 949 656 q 908 719 924 703 q 876 736 893 736 l 647 736 q 619 726 636 736 q 586 701 603 715 q 556 673 569 688 q 536 650 542 658 l 76 79 q 63 81 71 89 q 44 40 54 72 l 44 39 l 44 36 q 40 19 42 28 q 36 0 39 11 l 642 0 q 662 15 649 3 q 690 44 675 28 q 722 81 706 61 q 753 117 739 100 l 775 0 l 1479 0 q 1499 14 1481 0 q 1540 49 1517 28 q 1586 92 1563 69 q 1622 131 1610 114 l 1621 128 q 1630 142 1622 129 q 1647 169 1638 154 q 1663 197 1656 183 q 1674 217 1671 211 l 1150 217 l 1165 257 l 1431 257 l 1668 474 l 1294 474 l 1222 404 l 1264 519 l 1669 519 q 1710 545 1682 519 q 1769 606 1739 571 q 1826 678 1799 642 q 1864 736 1853 714 l 1044 736 m 704 454 l 740 215 l 521 215 l 704 454 "},"ç":{"ha":868,"x_min":118,"x_max":1140,"o":"m 118 -154 l 333 8 l 396 8 l 407 35 q 317 77 358 51 q 247 140 276 103 q 200 228 217 178 q 183 343 183 278 q 213 482 183 411 q 293 611 243 553 q 410 706 343 669 q 550 743 476 743 l 1140 743 q 1042 622 1089 676 q 943 524 994 568 l 590 524 q 556 513 572 524 q 524 487 539 503 q 498 450 510 471 q 479 408 486 429 l 479 410 q 474 383 476 394 q 471 361 471 371 q 482 314 471 339 q 511 268 493 289 q 550 233 529 247 q 590 219 571 219 l 947 219 q 862 103 908 161 q 757 0 815 44 l 597 0 l 594 0 l 539 -154 l 118 -154 "},"è":{"ha":863,"x_min":43,"x_max":1124,"o":"m 43 0 l 743 0 q 763 14 744 0 q 803 49 781 28 q 849 92 826 69 q 885 132 872 115 l 883 129 q 892 143 885 131 q 909 171 900 156 q 926 200 918 186 q 936 219 933 214 l 419 219 l 435 260 l 696 260 l 929 481 l 561 481 l 490 411 l 532 526 l 931 526 q 971 553 943 526 q 1028 615 999 579 q 1085 688 1058 650 q 1124 747 1113 725 l 315 747 l 43 0 m 788 950 l 788 949 q 772 985 781 968 q 738 1003 763 1003 q 689 989 722 1003 q 632 925 646 963 q 628 913 629 918 q 628 903 628 907 q 632 875 628 888 l 632 878 l 644 836 q 678 803 653 818 q 728 788 703 788 l 732 788 q 740 789 738 788 q 744 790 743 789 q 746 790 744 790 l 761 800 l 758 797 q 783 818 774 804 q 797 847 792 832 q 803 878 803 858 q 802 890 803 883 q 801 903 801 897 q 800 917 800 907 l 788 950 "},"é":{"ha":863,"x_min":43,"x_max":1124,"o":"m 43 0 l 743 0 q 763 14 744 0 q 803 49 781 28 q 849 92 826 69 q 885 132 872 115 l 883 129 q 892 143 885 131 q 909 171 900 156 q 926 200 918 186 q 936 219 933 214 l 419 219 l 435 260 l 696 260 l 929 481 l 561 481 l 490 411 l 532 526 l 931 526 q 971 553 943 526 q 1028 615 999 579 q 1085 688 1058 650 q 1124 747 1113 725 l 315 747 l 43 0 m 679 929 q 673 922 676 926 q 668 915 669 918 l 668 917 q 647 892 657 904 q 632 863 638 879 l 632 864 q 625 832 625 846 q 628 815 625 822 q 636 803 632 808 l 635 806 l 643 794 q 668 789 649 789 q 694 793 679 789 q 724 805 708 797 q 755 822 740 813 q 779 839 769 831 l 811 869 l 817 874 q 831 889 824 881 q 844 911 839 897 l 843 910 q 850 940 850 931 q 832 988 850 969 q 809 999 821 994 q 786 1004 797 1004 q 746 990 764 1004 q 710 958 728 976 l 711 958 l 679 929 "},"ê":{"ha":863,"x_min":43,"x_max":1124,"o":"m 43 0 l 743 0 q 763 14 744 0 q 803 49 781 28 q 849 92 826 69 q 885 132 872 115 l 883 129 q 892 143 885 131 q 909 171 900 156 q 926 200 918 186 q 936 219 933 214 l 419 219 l 435 260 l 696 260 l 929 479 l 561 479 l 490 411 l 532 526 l 931 526 q 971 553 943 526 q 1028 615 999 579 q 1085 687 1058 650 q 1124 746 1113 724 l 315 746 l 43 0 m 771 794 l 924 794 l 844 956 q 826 978 838 965 q 796 990 815 990 l 713 990 q 693 984 704 990 q 671 971 682 978 q 671 972 672 972 q 668 969 669 971 l 490 794 l 669 794 l 736 860 l 771 794 "},"ë":{"ha":863,"x_min":43,"x_max":1124,"o":"m 43 0 l 743 0 q 763 14 744 0 q 803 49 781 28 q 849 92 826 69 q 885 132 872 115 l 883 129 q 892 143 885 131 q 909 171 900 156 q 926 200 918 186 q 936 219 933 214 l 419 219 l 435 260 l 696 260 l 929 479 l 561 479 l 490 411 l 532 526 l 931 526 q 971 553 943 526 q 1028 615 999 579 q 1085 687 1058 650 q 1124 746 1113 724 l 315 746 l 43 0 m 986 882 q 992 901 990 892 q 993 917 993 910 q 971 969 993 949 q 913 989 949 989 q 832 963 869 989 q 779 897 794 936 l 779 899 q 774 880 775 889 q 774 864 774 871 q 796 812 774 832 q 854 792 818 792 q 935 818 897 792 q 986 883 972 844 l 986 882 m 538 899 q 532 880 533 889 q 531 864 531 871 q 552 812 531 832 q 611 792 574 792 q 692 818 654 792 q 744 883 731 844 q 751 915 751 901 q 729 968 751 947 q 668 989 707 989 q 590 963 626 989 q 538 897 553 936 l 538 899 "},"ì":{"ha":347,"x_min":42,"x_max":593,"o":"m 306 747 l 42 0 l 329 0 l 593 747 l 306 747 m 557 914 l 546 944 l 547 942 q 533 980 543 963 q 497 997 522 997 q 450 983 483 997 q 396 917 410 960 q 393 899 393 908 q 397 869 393 882 l 397 872 l 407 842 q 440 800 414 818 q 489 782 465 782 q 517 790 508 782 l 511 788 l 521 793 l 519 792 q 543 813 535 799 q 557 842 551 826 q 561 872 561 860 q 559 893 561 885 q 557 908 557 901 l 557 914 "},"í":{"ha":349,"x_min":42,"x_max":604,"o":"m 331 0 l 594 747 l 306 747 l 42 0 l 331 0 m 439 925 q 433 918 436 922 q 428 911 429 914 l 428 913 q 408 888 417 900 q 393 860 399 875 q 386 828 386 842 q 390 812 386 819 q 397 799 393 804 l 396 801 l 404 790 q 428 785 410 785 q 452 789 438 785 q 482 801 467 793 q 512 817 497 808 q 536 835 526 826 l 567 865 l 572 869 q 586 885 579 876 q 597 907 593 893 l 596 906 q 604 936 604 922 q 586 983 604 964 q 542 1000 563 1000 q 503 986 521 1000 q 468 954 485 972 l 469 954 l 439 925 "},"î":{"ha":350,"x_min":43,"x_max":681,"o":"m 333 0 l 599 746 l 308 746 l 43 0 l 333 0 m 531 793 l 681 793 l 601 954 q 585 976 596 964 q 554 989 574 989 l 474 989 q 447 980 461 989 q 426 964 433 971 l 257 793 l 433 793 l 496 858 l 531 793 "},"ï":{"ha":353,"x_min":43,"x_max":736,"o":"m 335 0 l 601 746 l 310 746 l 43 0 l 335 0 m 731 882 q 736 917 736 897 q 715 969 736 949 q 657 989 693 989 q 578 963 615 989 q 528 897 542 936 l 528 899 q 522 880 524 889 q 521 864 521 871 q 542 812 521 832 q 600 792 564 792 q 678 818 642 792 q 731 883 715 844 l 731 882 m 290 899 q 285 880 286 889 q 283 864 283 871 q 305 812 283 832 q 363 792 326 792 q 403 799 383 792 q 441 818 424 806 q 472 847 458 831 q 493 883 486 864 q 500 915 500 901 q 478 968 500 947 q 418 989 456 989 q 341 963 378 989 q 290 897 304 936 l 290 899 "},"ð":{"ha":886,"x_min":124,"x_max":1056,"o":"m 147 282 q 124 167 124 219 q 133 102 124 132 q 161 49 142 72 q 209 13 181 26 q 278 0 238 0 q 452 15 361 0 q 634 67 543 29 q 810 167 725 104 q 967 328 896 231 q 1033 447 1011 386 q 1056 561 1056 507 q 1013 686 1056 636 q 883 736 971 736 l 314 736 q 323 620 315 674 q 354 519 331 567 l 714 519 q 735 508 729 519 q 742 482 742 497 l 742 474 l 393 474 q 245 411 304 458 q 149 285 186 364 l 147 282 m 476 218 l 421 218 l 422 239 q 429 245 426 243 q 433 249 432 247 q 447 260 440 256 q 472 267 454 264 l 576 267 q 520 232 546 246 q 476 218 494 218 "},"ñ":{"ha":903,"x_min":43,"x_max":1158,"o":"m 342 0 l 467 342 l 531 0 l 885 0 l 1158 746 l 863 746 l 736 404 l 671 746 l 317 746 l 43 0 l 342 0 m 672 986 q 653 981 661 986 q 633 968 644 975 l 628 965 l 450 790 l 631 790 l 694 856 l 731 790 l 853 790 q 876 798 865 790 q 894 810 888 806 q 982 894 951 864 q 1027 942 1013 925 q 1044 967 1042 958 q 1046 986 1046 975 l 894 986 l 831 921 l 794 986 l 672 986 "},"ò":{"ha":988,"x_min":163,"x_max":1121,"o":"m 1115 400 q 1119 438 1118 419 q 1121 475 1121 456 q 1096 599 1121 547 q 1025 684 1071 651 q 915 732 979 717 q 775 747 851 747 l 600 747 q 453 710 526 747 q 320 614 381 672 q 219 485 260 556 q 168 347 178 414 q 164 310 165 328 q 163 275 163 292 q 190 140 163 193 q 265 56 217 88 q 381 13 314 25 q 525 0 447 0 l 658 0 q 819 37 742 0 q 960 132 897 74 q 1063 261 1022 190 q 1115 400 1104 332 m 460 361 q 466 382 461 369 q 476 410 471 394 l 476 408 q 506 450 488 429 q 545 488 524 471 q 589 516 567 506 q 631 526 611 526 l 738 526 q 806 499 788 526 q 825 438 825 472 q 824 418 825 426 q 824 400 824 410 q 822 389 822 394 q 819 378 821 383 l 814 364 q 800 335 811 351 q 768 294 789 314 q 724 257 747 274 q 679 230 701 240 q 643 219 657 219 l 556 219 q 518 231 536 219 q 487 261 500 243 q 466 302 474 279 q 458 346 458 325 q 460 357 458 353 l 460 361 m 879 947 l 881 944 q 865 983 876 965 q 828 1000 854 1000 q 781 986 814 1000 q 724 919 739 964 q 721 901 721 911 q 722 888 721 894 q 725 875 722 881 l 732 846 q 769 803 743 822 q 819 785 796 785 q 849 793 840 785 l 843 790 l 853 796 q 874 815 865 803 q 890 843 883 828 q 894 872 894 857 q 894 886 894 881 q 892 897 893 892 l 892 914 l 879 947 "},"ó":{"ha":988,"x_min":163,"x_max":1121,"o":"m 1115 400 q 1119 438 1118 419 q 1121 475 1121 456 q 1096 599 1121 547 q 1025 684 1071 651 q 915 732 979 717 q 775 747 851 747 l 600 747 q 453 710 526 747 q 320 614 381 672 q 219 485 260 556 q 168 347 178 414 q 164 310 165 328 q 163 275 163 292 q 190 140 163 193 q 265 56 217 88 q 381 13 314 25 q 525 0 447 0 l 658 0 q 819 37 742 0 q 960 132 897 74 q 1063 261 1022 190 q 1115 400 1104 332 m 460 361 q 466 382 461 369 q 476 410 471 394 l 476 408 q 506 450 488 429 q 545 488 524 471 q 589 516 567 506 q 631 526 611 526 l 738 526 q 806 499 788 526 q 825 438 825 472 q 824 418 825 426 q 824 400 824 410 q 822 389 822 394 q 819 378 821 383 l 814 364 q 800 335 811 351 q 768 294 789 314 q 724 257 747 274 q 679 230 701 240 q 643 219 657 219 l 556 219 q 518 231 536 219 q 487 261 500 243 q 466 302 474 279 q 458 346 458 325 q 460 357 458 353 l 460 361 m 763 925 q 756 918 760 922 q 750 911 753 914 l 750 913 q 730 888 739 900 q 714 858 721 875 l 714 860 q 707 828 707 842 q 719 799 707 811 l 718 801 l 726 790 q 750 785 732 785 q 776 789 761 785 q 806 801 790 793 q 837 817 822 808 q 861 835 851 826 l 893 865 l 899 869 q 913 885 906 876 q 925 907 921 893 l 924 906 q 932 936 932 922 q 914 983 932 964 q 891 995 903 990 q 868 1000 879 1000 q 828 986 846 1000 q 793 954 810 972 l 794 954 l 763 925 "},"ô":{"ha":988,"x_min":163,"x_max":1121,"o":"m 1115 400 q 1119 438 1118 419 q 1121 475 1121 456 q 1096 599 1121 547 q 1025 683 1071 651 q 915 731 979 715 q 775 746 851 746 l 600 746 q 453 709 526 746 q 320 614 381 672 q 219 485 260 556 q 168 346 178 414 q 164 309 165 326 q 163 275 163 292 q 190 140 163 193 q 265 56 217 88 q 381 13 314 25 q 525 0 447 0 l 658 0 q 819 37 742 0 q 960 132 897 74 q 1063 261 1022 190 q 1115 400 1104 332 m 460 361 q 466 382 461 369 q 476 410 471 394 l 476 408 q 506 450 488 429 q 545 488 524 471 q 589 516 567 506 q 631 526 611 526 l 738 526 q 806 499 788 526 q 825 438 825 471 q 824 417 825 426 q 824 400 824 408 q 822 389 822 394 q 819 378 821 383 l 814 364 q 800 335 811 351 q 768 293 789 314 q 724 256 747 272 q 679 230 701 240 q 643 219 657 219 l 556 219 q 518 231 536 219 q 487 261 500 243 q 466 302 474 279 q 458 346 458 325 q 460 357 458 353 l 460 361 m 836 792 l 989 792 l 910 953 q 892 975 903 963 q 861 988 882 988 l 779 988 q 759 981 769 988 q 738 968 749 975 q 733 967 738 968 l 557 792 l 736 792 l 801 857 l 836 792 "},"õ":{"ha":988,"x_min":163,"x_max":1121,"o":"m 1115 400 q 1119 438 1118 419 q 1121 476 1121 457 q 1096 600 1121 549 q 1025 683 1071 651 q 915 731 979 715 q 775 746 851 746 l 600 746 q 453 709 526 746 q 320 614 381 672 q 219 485 260 556 q 168 346 178 414 l 168 344 q 163 276 163 324 q 190 142 163 196 q 265 58 217 89 q 381 13 314 26 q 525 0 447 0 l 658 0 q 819 37 742 0 q 960 132 897 74 q 1063 261 1022 190 q 1115 400 1104 332 m 460 361 q 466 382 461 369 q 476 410 471 394 l 476 408 q 506 450 488 429 q 545 488 524 471 q 589 516 567 506 q 631 526 611 526 l 738 526 q 781 518 764 526 q 808 496 799 510 q 822 465 818 482 q 825 429 825 447 q 824 397 825 404 q 819 378 822 390 l 814 364 q 800 335 813 354 q 768 293 789 314 q 724 256 747 272 q 679 230 701 240 q 643 219 657 219 l 556 219 q 518 231 536 219 q 487 261 500 243 q 466 301 474 279 q 458 344 458 324 l 458 351 l 454 347 l 460 361 m 717 986 q 697 981 706 986 q 678 968 689 975 l 672 965 l 496 790 l 675 790 l 739 856 l 775 790 l 896 790 q 919 798 908 790 q 938 810 931 806 q 1024 894 993 864 q 1068 942 1054 925 q 1085 967 1082 958 q 1088 986 1088 975 l 938 986 l 874 921 l 838 986 l 717 986 "},"ö":{"ha":988,"x_min":163,"x_max":1121,"o":"m 1115 400 q 1119 438 1118 419 q 1121 475 1121 456 q 1096 599 1121 547 q 1025 683 1071 651 q 915 731 979 715 q 775 746 851 746 l 600 746 q 453 709 526 746 q 320 614 381 672 q 219 485 260 556 q 168 346 178 414 q 164 309 165 326 q 163 275 163 292 q 190 140 163 193 q 265 56 217 88 q 381 13 314 25 q 525 0 447 0 l 658 0 q 819 37 742 0 q 960 132 897 74 q 1063 261 1022 190 q 1115 400 1104 332 m 460 361 q 466 382 461 369 q 476 410 471 394 l 476 408 q 506 450 488 429 q 545 488 524 471 q 589 516 567 506 q 631 526 611 526 l 738 526 q 806 499 788 526 q 825 438 825 471 q 824 418 825 426 q 824 400 824 410 q 822 389 822 394 q 819 378 821 383 l 814 364 q 800 335 811 351 q 768 294 789 314 q 724 257 747 274 q 679 230 701 240 q 643 219 657 219 l 556 219 q 518 231 536 219 q 487 261 500 243 q 466 302 474 279 q 458 346 458 325 q 460 357 458 353 l 460 361 m 1044 882 q 1050 901 1049 892 q 1051 917 1051 910 q 1029 969 1051 949 q 969 989 1007 989 q 890 963 928 989 q 838 897 853 936 l 838 899 q 832 880 833 889 q 831 864 831 871 q 853 812 831 832 q 913 792 875 792 q 992 818 954 792 q 1044 883 1029 844 l 1044 882 m 597 899 q 592 880 593 889 q 590 864 590 871 q 612 812 590 832 q 669 792 633 792 q 751 818 713 792 q 803 883 789 844 q 810 915 810 901 q 788 968 810 947 q 728 989 765 989 q 648 963 685 989 q 597 897 611 936 l 597 899 "},"÷":{"ha":590,"x_min":100,"x_max":778,"o":"m 425 568 q 419 551 421 560 q 418 535 418 542 q 474 467 418 479 l 328 467 l 100 253 l 382 253 q 317 222 346 246 q 276 165 288 197 q 271 135 271 150 q 292 83 271 103 q 351 64 314 64 q 428 90 392 64 q 478 153 464 115 l 478 151 q 485 186 485 168 q 470 229 485 211 q 431 253 456 247 l 550 253 l 778 467 l 521 467 q 585 498 556 474 q 626 554 615 522 q 633 585 633 571 q 611 637 633 617 q 553 657 589 657 q 476 631 513 657 q 425 567 439 606 l 425 568 "},"ø":{"ha":988,"x_min":163,"x_max":1121,"o":"m 1115 394 q 1119 431 1118 414 q 1121 468 1121 449 q 1096 591 1121 540 q 1025 674 1071 642 q 915 721 979 706 q 775 736 851 736 l 600 736 q 453 699 526 736 q 320 606 381 663 q 219 478 260 549 q 168 342 178 408 q 164 305 165 322 q 163 271 163 288 q 190 140 163 192 q 265 56 217 88 q 381 13 314 25 q 525 0 447 0 l 658 0 q 819 37 742 0 q 960 131 897 74 q 1063 258 1022 188 q 1115 394 1104 328 m 819 372 l 814 358 q 800 331 813 350 q 768 290 789 310 q 724 253 747 269 q 679 227 701 238 q 643 217 657 217 l 556 217 l 546 217 l 824 411 l 824 394 q 822 384 822 389 q 819 372 821 379 m 460 356 q 466 376 461 364 q 476 404 471 389 l 476 403 q 506 444 488 424 q 545 482 524 465 q 589 509 567 499 q 631 519 611 519 l 726 519 l 458 332 l 458 338 q 460 354 458 350 l 460 356 "},"ù":{"ha":938,"x_min":158,"x_max":1193,"o":"m 204 436 q 192 386 197 408 q 165 283 174 329 q 160 247 163 264 q 158 214 158 229 q 244 49 158 97 q 503 0 329 0 l 658 0 q 803 26 743 0 q 910 101 864 51 q 992 223 956 150 q 1063 390 1028 296 l 1193 747 l 897 747 l 749 338 l 750 340 q 727 302 742 324 q 693 263 713 281 q 649 232 674 244 q 596 219 625 219 l 531 219 q 485 241 499 219 q 472 300 472 263 l 472 317 q 475 338 472 324 q 476 345 475 340 q 481 364 476 350 q 492 403 485 378 q 515 472 500 428 q 553 584 531 517 q 610 747 576 651 l 315 747 l 204 436 m 857 946 l 857 944 q 842 981 851 964 q 807 999 832 999 q 758 985 796 999 q 700 918 717 961 q 697 900 697 910 q 703 871 697 881 l 703 874 l 715 832 q 747 799 722 814 q 797 783 772 783 l 801 783 q 811 785 807 783 q 815 785 814 785 q 817 786 815 786 l 831 796 l 828 793 q 853 814 844 800 q 867 843 861 828 q 872 874 872 854 q 872 886 872 879 q 871 899 871 893 q 869 913 869 903 l 857 946 "},"ú":{"ha":938,"x_min":158,"x_max":1193,"o":"m 204 436 q 192 386 197 408 q 165 283 174 329 q 160 247 163 264 q 158 214 158 229 q 244 49 158 97 q 503 0 329 0 l 658 0 q 803 26 743 0 q 910 101 864 51 q 992 223 956 150 q 1063 390 1028 296 l 1193 747 l 897 747 l 749 338 l 750 340 q 727 302 742 324 q 693 263 713 281 q 649 232 674 244 q 596 219 625 219 l 531 219 q 485 241 499 219 q 472 300 472 263 l 472 317 q 475 338 472 324 q 476 345 475 340 q 481 364 476 350 q 492 403 485 378 q 515 472 500 428 q 553 584 531 517 q 610 747 576 651 l 315 747 l 204 436 m 746 924 q 740 917 743 921 q 735 911 738 914 q 714 888 724 900 q 697 856 704 875 q 690 826 690 838 q 706 796 690 807 l 703 797 l 708 792 l 707 793 q 735 783 717 783 q 792 799 757 783 q 847 833 826 815 l 879 864 l 883 868 q 897 883 890 875 q 910 906 904 892 l 910 904 q 917 936 917 921 q 899 982 917 964 q 853 999 875 999 q 813 985 831 999 q 778 953 794 971 l 779 953 l 746 924 "},"û":{"ha":938,"x_min":158,"x_max":1193,"o":"m 204 436 q 192 386 197 408 q 176 333 182 358 q 165 283 169 307 q 160 247 163 264 q 158 214 158 229 q 244 49 158 97 q 503 0 329 0 l 658 0 q 803 26 743 0 q 910 101 864 51 q 992 223 956 150 q 1063 390 1028 296 l 1193 746 l 897 746 l 749 338 l 750 340 q 727 302 742 324 q 693 263 713 281 q 649 232 674 244 q 596 219 625 219 l 531 219 q 485 241 499 219 q 472 300 472 263 l 472 317 q 475 338 472 324 q 476 345 475 340 q 481 363 476 350 q 492 402 485 376 q 515 472 500 428 q 553 583 531 517 q 610 746 576 650 l 315 746 l 204 436 m 818 792 l 971 792 l 890 953 q 873 975 885 963 q 842 988 861 988 l 758 988 q 740 982 749 988 q 719 969 731 976 l 715 967 l 538 792 l 717 792 l 782 857 l 818 792 "},"ü":{"ha":938,"x_min":158,"x_max":1193,"o":"m 204 436 q 192 386 197 408 q 176 333 182 358 q 165 283 169 307 q 160 247 163 264 q 158 214 158 229 q 244 49 158 97 q 503 0 329 0 l 658 0 q 803 26 743 0 q 910 101 864 51 q 992 223 956 150 q 1063 390 1028 296 l 1193 746 l 897 746 l 749 338 l 750 340 q 727 302 742 324 q 693 263 713 281 q 649 232 674 244 q 596 219 625 219 l 531 219 q 485 241 499 219 q 472 300 472 263 l 472 317 q 475 338 472 324 q 476 345 475 340 q 481 363 476 350 q 492 402 485 376 q 515 472 500 428 q 553 583 531 517 q 610 746 576 650 l 315 746 l 204 436 m 579 897 q 574 878 575 888 q 572 863 572 869 q 594 810 572 831 q 653 790 617 790 q 733 817 696 790 q 785 882 771 843 l 785 881 q 790 899 789 890 q 792 915 792 908 q 769 967 792 947 q 711 988 747 988 q 631 961 668 988 q 579 896 593 935 l 579 897 m 1026 881 q 1032 899 1031 890 q 1033 915 1033 908 q 1012 967 1033 947 q 954 988 990 988 q 873 960 911 988 q 819 894 835 933 q 814 864 814 878 q 836 811 814 832 q 896 790 858 790 q 976 817 939 790 q 1026 882 1013 843 l 1026 881 "},"ý":{"ha":897,"x_min":283,"x_max":1186,"o":"m 608 0 l 733 344 l 1186 747 l 844 747 l 671 593 l 610 747 l 283 747 l 442 354 l 314 0 l 608 0 m 726 924 q 717 911 725 922 q 696 888 706 900 q 679 856 686 875 q 672 826 672 838 q 688 796 672 807 l 685 797 l 689 792 l 689 793 q 717 783 694 783 q 742 788 728 783 q 773 799 757 792 q 803 816 789 807 q 828 833 818 825 l 860 864 l 863 868 q 877 883 869 875 q 889 906 885 892 l 889 904 q 896 936 896 921 q 879 982 896 963 q 856 994 868 989 q 833 999 844 999 q 793 985 811 999 q 758 953 775 971 l 760 953 l 726 924 "},"þ":{"ha":935,"x_min":43,"x_max":1047,"o":"m 43 0 l 340 0 l 385 121 l 746 121 q 847 141 793 121 q 944 197 900 161 q 1018 283 989 233 q 1047 392 1047 332 q 1036 458 1046 421 q 1008 527 1026 494 q 960 582 989 560 q 893 604 932 604 l 564 604 l 613 736 l 315 736 l 43 0 m 743 386 l 750 372 l 750 371 l 750 372 l 750 371 q 742 349 746 360 q 738 338 738 338 l 518 338 l 440 271 l 483 386 l 743 386 "},"ÿ":{"ha":897,"x_min":283,"x_max":1186,"o":"m 608 0 l 733 344 l 1186 746 l 844 746 l 671 593 l 610 746 l 283 746 l 442 354 l 314 0 l 608 0 m 564 897 q 558 878 560 888 q 557 863 557 869 q 579 810 557 831 q 638 790 601 790 q 717 817 679 790 q 769 882 754 843 l 769 881 q 774 899 774 890 q 775 915 775 908 q 753 967 775 947 q 694 988 732 988 q 615 961 653 988 q 564 896 578 935 l 564 897 m 1008 881 q 1014 899 1013 890 q 1015 915 1015 908 q 994 967 1015 947 q 936 988 972 988 q 856 960 894 988 q 803 894 818 933 q 797 864 797 878 q 819 811 797 832 q 879 790 842 790 q 958 817 921 790 q 1008 882 994 843 l 1008 881 "}}}
